<svg width="20" height="20" viewBox="0 0 15 15" fill="none" xmlns="http://www.w3.org/2000/svg">
<g opacity="0.6">
<path d="M14.4486 13.1602H1.10727C0.998976 13.1602 0.890686 13.2684 0.890686 13.3767C0.890686 14.0048 1.41048 14.5246 2.03856 14.5246H13.5389C14.167 14.5246 14.6868 14.0048 14.6868 13.3767C14.6652 13.2684 14.5785 13.1602 14.4486 13.1602Z" fill="#73738D"/>
<path d="M13.6039 9.67288C13.1275 9.32635 12.4344 9.28303 11.893 9.54293C11.3515 9.80283 10.7018 9.80283 10.1387 9.54293C9.68384 9.32635 9.09907 9.32635 8.64425 9.54293C8.1028 9.80283 7.45306 9.80283 6.88996 9.54293C6.43514 9.32635 5.85037 9.32635 5.39555 9.54293C4.8541 9.80283 4.20437 9.80283 3.64126 9.54293C3.12147 9.30469 2.47173 9.32635 1.99525 9.62956C1.97359 9.62956 1.95193 9.65122 1.95193 9.67288V12.7267H13.6039V9.67288Z" fill="#73738D"/>
<path d="M3.85783 9.1534C4.29099 9.34833 4.81078 9.34833 5.22229 9.1534C5.80705 8.87185 6.52176 8.87185 7.08487 9.1534C7.51803 9.34833 8.03782 9.34833 8.44932 9.1534C9.03409 8.87185 9.7488 8.87185 10.3336 9.1534C10.7667 9.34833 11.2865 9.34833 11.698 9.1534C12.2828 8.87185 13.0192 8.87185 13.5823 9.17506V8.89351C13.5823 7.9189 12.7809 7.11755 11.8063 7.11755H3.74954C2.77493 7.11755 1.97359 7.9189 1.97359 8.89351V9.17506C2.53669 8.89351 3.25141 8.87185 3.85783 9.1534Z" fill="#73738D"/>
<path d="M11.1566 5.16829C11.1566 4.73513 10.81 4.36694 10.3552 4.36694C9.92206 4.36694 9.55388 4.71347 9.55388 5.16829V6.68435H11.1566V5.16829Z" fill="#73738D"/>
<path d="M6.00197 5.16829C6.00197 4.73513 5.63378 4.36694 5.20062 4.36694C4.76746 4.36694 4.39928 4.71347 4.39928 5.16829V6.68435H6.00197V5.16829Z" fill="#73738D"/>
<path d="M8.57927 4.23701C8.57927 3.80385 8.21108 3.43567 7.77792 3.43567C7.34476 3.43567 6.97658 3.80385 6.97658 4.23701V6.68437H8.57927V4.23701Z" fill="#73738D"/>
<path d="M10.3552 3.80384C10.7884 3.80384 11.1349 3.45731 11.1349 3.02415C11.1349 2.67763 10.6801 1.9196 10.5285 1.70302C10.4852 1.63804 10.4202 1.59473 10.3552 1.59473C10.2902 1.59473 10.2036 1.63804 10.182 1.70302C10.0303 1.9196 9.57553 2.67763 9.57553 3.02415C9.57553 3.45731 9.92206 3.80384 10.3552 3.80384Z" fill="#73738D"/>
<path d="M5.20063 3.80384C5.63379 3.80384 5.98032 3.45731 5.98032 3.02415C5.98032 2.67763 5.5255 1.9196 5.3739 1.70302C5.33058 1.63804 5.26561 1.59473 5.20063 1.59473C5.13566 1.59473 5.04903 1.63804 5.02737 1.70302C4.87576 1.9196 4.42094 2.67763 4.42094 3.02415C4.42094 3.45731 4.76747 3.80384 5.20063 3.80384Z" fill="#73738D"/>
<path d="M7.77793 2.87257C8.21109 2.87257 8.55762 2.52604 8.55762 2.09288C8.55762 1.74635 8.1028 1.00998 7.9512 0.771742C7.92954 0.706768 7.84291 0.663452 7.77793 0.663452C7.71296 0.663452 7.62633 0.706768 7.60467 0.771742C7.45306 0.988322 6.99825 1.74635 6.99825 2.09288C6.99825 2.50438 7.34477 2.87257 7.77793 2.87257Z" fill="#73738D"/>
</g>
</svg>
