<svg width="20" height="20" viewBox="0 0 14 14" fill="none" xmlns="http://www.w3.org/2000/svg">
<path d="M12.2748 7.69956C12.3092 7.497 12.3092 7.2604 12.3092 7.02383C12.3092 6.78726 12.2748 6.58467 12.2748 6.3481L13.7259 5.23321C13.8643 5.13192 13.8987 4.96302 13.7951 4.79405L12.4128 2.46266C12.3436 2.32738 12.1364 2.2601 11.998 2.32738L10.2702 3.00314C9.92459 2.73292 9.51018 2.49631 9.09545 2.32738L8.85349 0.536798C8.81906 0.401847 8.68069 0.266571 8.50789 0.266571H5.74332C5.57055 0.266571 5.43219 0.401847 5.39775 0.536798L5.12136 2.32738C4.70659 2.49631 4.32659 2.73288 3.94627 3.00314L2.21842 2.32738C2.04562 2.2601 1.87282 2.32738 1.80365 2.46266L0.421366 4.79409C0.352526 4.929 0.386898 5.13192 0.490531 5.23324L1.97652 6.3481C1.97652 6.58467 1.94208 6.78726 1.94208 7.02383C1.94208 7.2604 1.97652 7.46299 1.97652 7.69956L0.52539 8.81445C0.386995 8.91574 0.352624 9.08464 0.456192 9.2536L1.83848 11.585C1.90768 11.7203 2.11488 11.7876 2.25324 11.7203L3.98113 11.0445C4.32669 11.3147 4.74113 11.5513 5.15586 11.7203L5.43226 13.5109C5.46698 13.6798 5.60502 13.7811 5.77782 13.7811H8.5424C8.71519 13.7811 8.85356 13.6458 8.88799 13.5109L9.16472 11.7203C9.57915 11.5513 9.95948 11.3148 10.3394 11.0445L12.0673 11.7203C12.2401 11.7876 12.4129 11.7203 12.4821 11.585L13.8644 9.25357C13.9335 9.11865 13.8988 8.91574 13.7952 8.81441L12.2748 7.69956ZM7.12564 9.38888C5.77779 9.38888 4.70666 8.34166 4.70666 7.02383C4.70666 5.706 5.77779 4.65878 7.12564 4.65878C8.47349 4.65878 9.54465 5.706 9.54465 7.02383C9.54465 8.34166 8.47349 9.38888 7.12564 9.38888Z" fill="#73738D"/>
</svg>
