<svg width="20" height="20" viewBox="0 0 14 14" fill="none" xmlns="http://www.w3.org/2000/svg">
<path d="M8.44619 10.906L8.07614 9.47207C8.02988 9.30246 7.86028 9.19453 7.69067 9.24078C7.52106 9.28704 7.41313 9.45665 7.45939 9.62626L7.82944 11.0756C7.44397 11.2915 7.18185 11.6924 7.18185 12.155C7.18185 12.8488 7.73693 13.4039 8.43077 13.4039C9.12462 13.4039 9.6797 12.8488 9.6797 12.155C9.69512 11.4765 9.14004 10.9214 8.44619 10.906Z" fill="#1943EF"/>
<path d="M4.2841 7.37481L2.32591 8.05324C2.09462 7.7757 1.75541 7.59067 1.35452 7.59067C0.66067 7.59067 0.105591 8.14575 0.105591 8.8396C0.105591 9.53345 0.66067 10.0885 1.35452 10.0885C2.04837 10.0885 2.60345 9.53345 2.60345 8.8396C2.60345 8.77792 2.58803 8.70083 2.58803 8.63915L4.48455 7.97614C4.65416 7.91447 4.73125 7.74486 4.68499 7.57525C4.63874 7.40565 4.45371 7.31313 4.2841 7.37481Z" fill="#1943EF"/>
<path d="M12.732 6.03351C12.1461 6.03351 11.6681 6.4344 11.5293 6.95864H10.0337C9.86411 6.95864 9.70992 7.09741 9.70992 7.26702C9.70992 7.43662 9.84869 7.57539 10.0337 7.57539H11.5139C11.6527 8.11505 12.1461 8.50053 12.7166 8.50053C13.4105 8.50053 13.9655 7.94545 13.9655 7.2516C13.9655 6.55775 13.4259 6.03351 12.732 6.03351Z" fill="#1943EF"/>
<path d="M7.18193 8.90107C8.34005 8.90107 9.27889 7.96913 9.27889 6.81952C9.27889 5.66992 8.34005 4.73798 7.18193 4.73798C6.0238 4.73798 5.08496 5.66992 5.08496 6.81952C5.08496 7.96913 6.0238 8.90107 7.18193 8.90107Z" fill="#1943EF"/>
<path d="M5.28625 4.4919L4.60782 3.98308C4.66949 3.82889 4.70033 3.6747 4.70033 3.50509C4.70033 2.81124 4.14525 2.25616 3.4514 2.25616C2.75756 2.25616 2.20248 2.81124 2.20248 3.50509C2.20248 4.19894 2.75756 4.75402 3.4514 4.75402C3.74436 4.75402 4.00648 4.64609 4.22235 4.4919L4.90078 5.01614C4.96245 5.0624 5.02413 5.07782 5.0858 5.07782C5.17832 5.07782 5.27083 5.03156 5.33251 4.95447C5.45586 4.80028 5.42502 4.59983 5.28625 4.4919Z" fill="#1943EF"/>
<path d="M8.49287 4.61475C8.53912 4.64559 8.6008 4.66101 8.66247 4.66101C8.77041 4.66101 8.87834 4.59933 8.94001 4.50682L9.92682 2.87242C10.0656 2.91868 10.2044 2.94952 10.3431 2.94952C11.037 2.94952 11.5921 2.39444 11.5921 1.70059C11.5921 1.00674 11.037 0.45166 10.3431 0.45166C9.64928 0.45166 9.0942 1.00674 9.0942 1.70059C9.0942 2.00897 9.21755 2.2865 9.40258 2.51779L8.40035 4.18303C8.29242 4.32179 8.33868 4.52224 8.49287 4.61475Z" fill="#1943EF"/>
</svg>
