<svg width="75" height="75" viewBox="0 0 48 45" fill="none" xmlns="http://www.w3.org/2000/svg">
<path d="M46.6488 44.6532C47.1847 44.6532 47.6191 44.2188 47.6191 43.6829C47.6191 43.1471 47.1847 42.7126 46.6488 42.7126C46.1129 42.7126 45.6785 43.1471 45.6785 43.6829C45.6785 44.2188 46.1129 44.6532 46.6488 44.6532Z" fill="#64CCE3"/>
<path d="M46.6488 36.2658C47.1847 36.2658 47.6191 35.8313 47.6191 35.2955C47.6191 34.7596 47.1847 34.3252 46.6488 34.3252C46.1129 34.3252 45.6785 34.7596 45.6785 35.2955C45.6785 35.8313 46.1129 36.2658 46.6488 36.2658Z" fill="#64CCE3"/>
<path d="M46.6488 27.88C47.1847 27.88 47.6191 27.4456 47.6191 26.9097C47.6191 26.3739 47.1847 25.9395 46.6488 25.9395C46.1129 25.9395 45.6785 26.3739 45.6785 26.9097C45.6785 27.4456 46.1129 27.88 46.6488 27.88Z" fill="#64CCE3"/>
<path d="M46.6488 19.5634C47.1847 19.5634 47.6191 19.1289 47.6191 18.5931C47.6191 18.0572 47.1847 17.6228 46.6488 17.6228C46.1129 17.6228 45.6785 18.0572 45.6785 18.5931C45.6785 19.1289 46.1129 19.5634 46.6488 19.5634Z" fill="#64CCE3"/>
<path d="M46.6488 11.1779C47.1847 11.1779 47.6191 10.7435 47.6191 10.2076C47.6191 9.67171 47.1847 9.2373 46.6488 9.2373C46.1129 9.2373 45.6785 9.67171 45.6785 10.2076C45.6785 10.7435 46.1129 11.1779 46.6488 11.1779Z" fill="#64CCE3"/>
<path d="M46.6488 2.86121C47.1847 2.86121 47.6191 2.4268 47.6191 1.89093C47.6191 1.35506 47.1847 0.920654 46.6488 0.920654C46.1129 0.920654 45.6785 1.35506 45.6785 1.89093C45.6785 2.4268 46.1129 2.86121 46.6488 2.86121Z" fill="#64CCE3"/>
<path d="M37.7073 44.6532C38.2432 44.6532 38.6776 44.2188 38.6776 43.6829C38.6776 43.1471 38.2432 42.7126 37.7073 42.7126C37.1715 42.7126 36.7371 43.1471 36.7371 43.6829C36.7371 44.2188 37.1715 44.6532 37.7073 44.6532Z" fill="#64CCE3"/>
<path d="M37.7073 36.2658C38.2432 36.2658 38.6776 35.8313 38.6776 35.2955C38.6776 34.7596 38.2432 34.3252 37.7073 34.3252C37.1715 34.3252 36.7371 34.7596 36.7371 35.2955C36.7371 35.8313 37.1715 36.2658 37.7073 36.2658Z" fill="#64CCE3"/>
<path d="M37.7073 27.88C38.2432 27.88 38.6776 27.4456 38.6776 26.9097C38.6776 26.3739 38.2432 25.9395 37.7073 25.9395C37.1715 25.9395 36.7371 26.3739 36.7371 26.9097C36.7371 27.4456 37.1715 27.88 37.7073 27.88Z" fill="#64CCE3"/>
<path d="M37.7073 19.5634C38.2432 19.5634 38.6776 19.1289 38.6776 18.5931C38.6776 18.0572 38.2432 17.6228 37.7073 17.6228C37.1715 17.6228 36.7371 18.0572 36.7371 18.5931C36.7371 19.1289 37.1715 19.5634 37.7073 19.5634Z" fill="#64CCE3"/>
<path d="M37.7073 11.1779C38.2432 11.1779 38.6776 10.7435 38.6776 10.2076C38.6776 9.67171 38.2432 9.2373 37.7073 9.2373C37.1715 9.2373 36.7371 9.67171 36.7371 10.2076C36.7371 10.7435 37.1715 11.1779 37.7073 11.1779Z" fill="#64CCE3"/>
<path d="M37.7077 2.86121C38.2436 2.86121 38.678 2.4268 38.678 1.89093C38.678 1.35506 38.2436 0.920654 37.7077 0.920654C37.1718 0.920654 36.7374 1.35506 36.7374 1.89093C36.7374 2.4268 37.1718 2.86121 37.7077 2.86121Z" fill="#64CCE3"/>
<path d="M28.6976 44.6532C29.2335 44.6532 29.6679 44.2188 29.6679 43.6829C29.6679 43.1471 29.2335 42.7126 28.6976 42.7126C28.1618 42.7126 27.7273 43.1471 27.7273 43.6829C27.7273 44.2188 28.1618 44.6532 28.6976 44.6532Z" fill="#64CCE3"/>
<path d="M28.6976 36.2658C29.2335 36.2658 29.6679 35.8313 29.6679 35.2955C29.6679 34.7596 29.2335 34.3252 28.6976 34.3252C28.1618 34.3252 27.7273 34.7596 27.7273 35.2955C27.7273 35.8313 28.1618 36.2658 28.6976 36.2658Z" fill="#64CCE3"/>
<path d="M28.6976 27.88C29.2335 27.88 29.6679 27.4456 29.6679 26.9097C29.6679 26.3739 29.2335 25.9395 28.6976 25.9395C28.1618 25.9395 27.7273 26.3739 27.7273 26.9097C27.7273 27.4456 28.1618 27.88 28.6976 27.88Z" fill="#64CCE3"/>
<path d="M28.6976 19.5634C29.2335 19.5634 29.6679 19.1289 29.6679 18.5931C29.6679 18.0572 29.2335 17.6228 28.6976 17.6228C28.1618 17.6228 27.7273 18.0572 27.7273 18.5931C27.7273 19.1289 28.1618 19.5634 28.6976 19.5634Z" fill="#64CCE3"/>
<path d="M28.6976 11.1779C29.2335 11.1779 29.6679 10.7435 29.6679 10.2076C29.6679 9.67171 29.2335 9.2373 28.6976 9.2373C28.1618 9.2373 27.7273 9.67171 27.7273 10.2076C27.7273 10.7435 28.1618 11.1779 28.6976 11.1779Z" fill="#64CCE3"/>
<path d="M28.6981 2.86121C29.2339 2.86121 29.6684 2.4268 29.6684 1.89093C29.6684 1.35506 29.2339 0.920654 28.6981 0.920654C28.1622 0.920654 27.7278 1.35506 27.7278 1.89093C27.7278 2.4268 28.1622 2.86121 28.6981 2.86121Z" fill="#64CCE3"/>
<path d="M19.6879 44.6532C20.2238 44.6532 20.6582 44.2188 20.6582 43.6829C20.6582 43.1471 20.2238 42.7126 19.6879 42.7126C19.152 42.7126 18.7176 43.1471 18.7176 43.6829C18.7176 44.2188 19.152 44.6532 19.6879 44.6532Z" fill="#64CCE3"/>
<path d="M19.6879 36.2658C20.2238 36.2658 20.6582 35.8313 20.6582 35.2955C20.6582 34.7596 20.2238 34.3252 19.6879 34.3252C19.152 34.3252 18.7176 34.7596 18.7176 35.2955C18.7176 35.8313 19.152 36.2658 19.6879 36.2658Z" fill="#64CCE3"/>
<path d="M19.6879 27.88C20.2238 27.88 20.6582 27.4456 20.6582 26.9097C20.6582 26.3739 20.2238 25.9395 19.6879 25.9395C19.152 25.9395 18.7176 26.3739 18.7176 26.9097C18.7176 27.4456 19.152 27.88 19.6879 27.88Z" fill="#64CCE3"/>
<path d="M19.6879 19.5634C20.2238 19.5634 20.6582 19.1289 20.6582 18.5931C20.6582 18.0572 20.2238 17.6228 19.6879 17.6228C19.152 17.6228 18.7176 18.0572 18.7176 18.5931C18.7176 19.1289 19.152 19.5634 19.6879 19.5634Z" fill="#64CCE3"/>
<path d="M19.6879 11.1779C20.2238 11.1779 20.6582 10.7435 20.6582 10.2076C20.6582 9.67171 20.2238 9.2373 19.6879 9.2373C19.152 9.2373 18.7176 9.67171 18.7176 10.2076C18.7176 10.7435 19.152 11.1779 19.6879 11.1779Z" fill="#64CCE3"/>
<path d="M19.6885 2.86121C20.2244 2.86121 20.6588 2.4268 20.6588 1.89093C20.6588 1.35506 20.2244 0.920654 19.6885 0.920654C19.1527 0.920654 18.7183 1.35506 18.7183 1.89093C18.7183 2.4268 19.1527 2.86121 19.6885 2.86121Z" fill="#64CCE3"/>
<path d="M10.6782 44.6532C11.214 44.6532 11.6485 44.2188 11.6485 43.6829C11.6485 43.1471 11.214 42.7126 10.6782 42.7126C10.1423 42.7126 9.7079 43.1471 9.7079 43.6829C9.7079 44.2188 10.1423 44.6532 10.6782 44.6532Z" fill="#64CCE3"/>
<path d="M10.6782 36.2658C11.214 36.2658 11.6485 35.8313 11.6485 35.2955C11.6485 34.7596 11.214 34.3252 10.6782 34.3252C10.1423 34.3252 9.7079 34.7596 9.7079 35.2955C9.7079 35.8313 10.1423 36.2658 10.6782 36.2658Z" fill="#64CCE3"/>
<path d="M10.6782 27.88C11.214 27.88 11.6485 27.4456 11.6485 26.9097C11.6485 26.3739 11.214 25.9395 10.6782 25.9395C10.1423 25.9395 9.7079 26.3739 9.7079 26.9097C9.7079 27.4456 10.1423 27.88 10.6782 27.88Z" fill="#64CCE3"/>
<path d="M10.6782 19.5634C11.214 19.5634 11.6485 19.1289 11.6485 18.5931C11.6485 18.0572 11.214 17.6228 10.6782 17.6228C10.1423 17.6228 9.7079 18.0572 9.7079 18.5931C9.7079 19.1289 10.1423 19.5634 10.6782 19.5634Z" fill="#64CCE3"/>
<path d="M10.6782 11.1779C11.214 11.1779 11.6485 10.7435 11.6485 10.2076C11.6485 9.67171 11.214 9.2373 10.6782 9.2373C10.1423 9.2373 9.7079 9.67171 9.7079 10.2076C9.7079 10.7435 10.1423 11.1779 10.6782 11.1779Z" fill="#64CCE3"/>
<path d="M10.679 2.86121C11.2148 2.86121 11.6493 2.4268 11.6493 1.89093C11.6493 1.35506 11.2148 0.920654 10.679 0.920654C10.1431 0.920654 9.7087 1.35506 9.7087 1.89093C9.7087 2.4268 10.1431 2.86121 10.679 2.86121Z" fill="#64CCE3"/>
<path d="M1.73737 44.6532C2.27324 44.6532 2.70765 44.2188 2.70765 43.6829C2.70765 43.1471 2.27324 42.7126 1.73737 42.7126C1.2015 42.7126 0.76709 43.1471 0.76709 43.6829C0.76709 44.2188 1.2015 44.6532 1.73737 44.6532Z" fill="#64CCE3"/>
<path d="M1.73737 36.2658C2.27324 36.2658 2.70765 35.8313 2.70765 35.2955C2.70765 34.7596 2.27324 34.3252 1.73737 34.3252C1.2015 34.3252 0.76709 34.7596 0.76709 35.2955C0.76709 35.8313 1.2015 36.2658 1.73737 36.2658Z" fill="#64CCE3"/>
<path d="M1.73737 27.88C2.27324 27.88 2.70765 27.4456 2.70765 26.9097C2.70765 26.3739 2.27324 25.9395 1.73737 25.9395C1.2015 25.9395 0.76709 26.3739 0.76709 26.9097C0.76709 27.4456 1.2015 27.88 1.73737 27.88Z" fill="#64CCE3"/>
<path d="M1.73737 19.5634C2.27324 19.5634 2.70765 19.1289 2.70765 18.5931C2.70765 18.0572 2.27324 17.6228 1.73737 17.6228C1.2015 17.6228 0.76709 18.0572 0.76709 18.5931C0.76709 19.1289 1.2015 19.5634 1.73737 19.5634Z" fill="#64CCE3"/>
<path d="M1.73737 11.1779C2.27324 11.1779 2.70765 10.7435 2.70765 10.2076C2.70765 9.67171 2.27324 9.2373 1.73737 9.2373C1.2015 9.2373 0.76709 9.67171 0.76709 10.2076C0.76709 10.7435 1.2015 11.1779 1.73737 11.1779Z" fill="#64CCE3"/>
<path d="M1.73741 2.86121C2.27328 2.86121 2.70769 2.4268 2.70769 1.89093C2.70769 1.35506 2.27328 0.920654 1.73741 0.920654C1.20154 0.920654 0.767136 1.35506 0.767136 1.89093C0.767136 2.4268 1.20154 2.86121 1.73741 2.86121Z" fill="#64CCE3"/>
</svg>
