<svg width="25" height="25" viewBox="0 0 18 17" fill="none" xmlns="http://www.w3.org/2000/svg">
<path d="M11.7127 7.83292C12.8042 7.83292 13.6974 6.9557 13.6974 5.8837C13.6974 4.81172 12.8042 3.93448 11.7127 3.93448C10.6212 3.93448 9.72808 4.81172 9.72808 5.8837C9.72808 6.9557 10.6212 7.83292 11.7127 7.83292ZM6.42032 7.83292C7.51185 7.83292 8.40495 6.9557 8.40495 5.8837C8.40495 4.81172 7.51185 3.93448 6.42032 3.93448C5.32879 3.93448 4.43562 4.81172 4.43562 5.8837C4.43562 6.9557 5.32879 7.83292 6.42032 7.83292ZM6.42032 9.26234C4.86556 9.26234 1.78943 10.0095 1.78943 11.5364V13.2907H11.1457V11.5364C11.1457 10.0095 7.97498 9.26234 6.42032 9.26234ZM11.7127 9.6198C11.5144 9.6198 11.3773 9.6198 11.1457 9.65219C11.9067 10.2045 12.1853 10.5618 12.1853 11.5364V13.2907H16.3436V11.5364C16.3436 10.0095 13.2675 9.6198 11.7127 9.6198Z" fill="#73738D"/>
</svg>
