<svg width="652" height="184" viewBox="0 0 652 184" fill="none" xmlns="http://www.w3.org/2000/svg">
<g filter="url(#filter0_d)">
<rect x="28.4597" y="21.0721" width="595.335" height="127.522" rx="11.0889" fill="#1943EF"/>
</g>
<mask id="mask0" mask-type="alpha" maskUnits="userSpaceOnUse" x="28" y="21" width="596" height="128">
<rect x="28.4597" y="21.0721" width="595.335" height="127.522" rx="11.0889" fill="#FF1F1F"/>
</mask>
<g mask="url(#mask0)">
<circle opacity="0.1" cx="45.7868" cy="24.5374" r="27.7222" fill="white"/>
<path d="M155.29 122.258C112.597 120.04 68.1956 140.74 51.3312 151.366V164.188H205.536H624.142V23.8441C619.059 13.9103 607.647 0.00300503 602.657 23.8441C596.419 53.6455 563.153 78.9421 495.58 67.5066C428.007 56.0712 399.592 67.5066 357.315 98.0011C315.039 128.496 208.655 125.03 155.29 122.258Z" fill="white" fill-opacity="0.09"/>
</g>
<rect x="501.124" y="98.0013" width="102.572" height="30.4944" rx="15.2472" fill="white" fill-opacity="0.25"/>
<path d="M533.352 113.951V114.359C533.352 115.245 533.048 115.983 532.44 116.571C531.832 117.153 531.026 117.444 530.024 117.444C528.989 117.444 528.132 117.105 527.453 116.426C526.78 115.74 526.444 114.906 526.444 113.922C526.444 112.939 526.78 112.108 527.453 111.429C528.132 110.743 528.982 110.4 530.004 110.4C530.632 110.4 531.208 110.552 531.732 110.856C532.256 111.154 532.66 111.548 532.944 112.04L532.168 112.496C531.974 112.127 531.68 111.833 531.285 111.613C530.897 111.387 530.467 111.274 529.995 111.274C529.219 111.274 528.581 111.529 528.083 112.04C527.585 112.545 527.336 113.172 527.336 113.922C527.336 114.673 527.585 115.3 528.083 115.805C528.588 116.309 529.238 116.562 530.034 116.562C530.713 116.562 531.263 116.397 531.683 116.067C532.103 115.73 532.359 115.297 532.45 114.767H529.956V113.951H533.352ZM534.954 115.281C535.038 115.714 535.235 116.051 535.546 116.29C535.863 116.529 536.251 116.649 536.71 116.649C537.35 116.649 537.816 116.413 538.107 115.941L538.825 116.348C538.353 117.079 537.641 117.444 536.691 117.444C535.921 117.444 535.293 117.205 534.808 116.726C534.329 116.241 534.09 115.63 534.09 114.893C534.09 114.162 534.326 113.554 534.798 113.069C535.271 112.583 535.882 112.341 536.632 112.341C537.344 112.341 537.923 112.593 538.369 113.098C538.822 113.596 539.048 114.197 539.048 114.902C539.048 115.025 539.039 115.151 539.019 115.281H534.954ZM536.632 113.136C536.179 113.136 535.804 113.266 535.507 113.525C535.209 113.777 535.025 114.116 534.954 114.543H538.194C538.123 114.084 537.942 113.735 537.651 113.495C537.36 113.256 537.02 113.136 536.632 113.136ZM542.516 113.282H541.225V115.911C541.225 116.151 541.27 116.322 541.361 116.426C541.458 116.523 541.604 116.574 541.798 116.581C541.992 116.581 542.231 116.574 542.516 116.562V117.318C541.778 117.415 541.238 117.357 540.895 117.144C540.552 116.924 540.381 116.513 540.381 115.911V113.282H539.42V112.467H540.381V111.361L541.225 111.109V112.467H542.516V113.282ZM548.249 117.444C547.615 117.444 547.072 117.296 546.619 116.998C546.173 116.701 545.859 116.293 545.678 115.776L546.454 115.329C546.72 116.151 547.324 116.562 548.269 116.562C548.734 116.562 549.09 116.468 549.336 116.28C549.582 116.086 549.705 115.831 549.705 115.514C549.705 115.19 549.582 114.948 549.336 114.786C549.09 114.624 548.679 114.453 548.104 114.272C547.819 114.181 547.602 114.11 547.454 114.058C547.305 114 547.117 113.916 546.891 113.806C546.671 113.69 546.506 113.573 546.396 113.457C546.286 113.334 546.186 113.175 546.095 112.981C546.011 112.787 545.969 112.567 545.969 112.321C545.969 111.733 546.176 111.267 546.59 110.924C547.004 110.575 547.509 110.4 548.104 110.4C548.641 110.4 549.106 110.536 549.501 110.808C549.902 111.079 550.203 111.438 550.403 111.885L549.647 112.321C549.355 111.623 548.841 111.274 548.104 111.274C547.735 111.274 547.438 111.364 547.211 111.545C546.985 111.726 546.872 111.972 546.872 112.283C546.872 112.58 546.978 112.807 547.192 112.962C547.405 113.117 547.774 113.279 548.298 113.447C548.485 113.505 548.618 113.547 548.696 113.573C548.773 113.599 548.893 113.644 549.055 113.709C549.223 113.774 549.346 113.825 549.423 113.864C549.501 113.903 549.604 113.958 549.734 114.029C549.87 114.1 549.97 114.168 550.035 114.233C550.099 114.298 550.174 114.378 550.258 114.475C550.348 114.566 550.413 114.66 550.452 114.757C550.491 114.854 550.523 114.967 550.549 115.096C550.581 115.219 550.597 115.352 550.597 115.494C550.597 116.089 550.381 116.565 549.947 116.921C549.514 117.27 548.948 117.444 548.249 117.444ZM554.076 113.282H552.785V115.911C552.785 116.151 552.83 116.322 552.921 116.426C553.018 116.523 553.164 116.574 553.358 116.581C553.552 116.581 553.791 116.574 554.076 116.562V117.318C553.338 117.415 552.798 117.357 552.455 117.144C552.112 116.924 551.941 116.513 551.941 115.911V113.282H550.98V112.467H551.941V111.361L552.785 111.109V112.467H554.076V113.282ZM558.846 112.467H559.69V117.318H558.846V116.484C558.425 117.124 557.814 117.444 557.012 117.444C556.333 117.444 555.754 117.199 555.275 116.707C554.796 116.209 554.557 115.604 554.557 114.893C554.557 114.181 554.796 113.58 555.275 113.088C555.754 112.59 556.333 112.341 557.012 112.341C557.814 112.341 558.425 112.661 558.846 113.301V112.467ZM557.118 116.629C557.61 116.629 558.021 116.465 558.351 116.135C558.681 115.798 558.846 115.384 558.846 114.893C558.846 114.401 558.681 113.99 558.351 113.66C558.021 113.324 557.61 113.156 557.118 113.156C556.633 113.156 556.226 113.324 555.896 113.66C555.566 113.99 555.401 114.401 555.401 114.893C555.401 115.384 555.566 115.798 555.896 116.135C556.226 116.465 556.633 116.629 557.118 116.629ZM561.813 113.282C562.091 112.68 562.596 112.38 563.326 112.38V113.263C562.912 113.243 562.557 113.353 562.259 113.592C561.962 113.832 561.813 114.217 561.813 114.747V117.318H560.969V112.467H561.813V113.282ZM566.905 113.282H565.615V115.911C565.615 116.151 565.66 116.322 565.751 116.426C565.848 116.523 565.993 116.574 566.187 116.581C566.381 116.581 566.621 116.574 566.905 116.562V117.318C566.168 117.415 565.628 117.357 565.285 117.144C564.942 116.924 564.771 116.513 564.771 115.911V113.282H563.81V112.467H564.771V111.361L565.615 111.109V112.467H566.905V113.282ZM568.25 115.281C568.334 115.714 568.532 116.051 568.842 116.29C569.159 116.529 569.547 116.649 570.006 116.649C570.647 116.649 571.112 116.413 571.404 115.941L572.122 116.348C571.649 117.079 570.938 117.444 569.987 117.444C569.217 117.444 568.59 117.205 568.105 116.726C567.626 116.241 567.387 115.63 567.387 114.893C567.387 114.162 567.623 113.554 568.095 113.069C568.567 112.583 569.178 112.341 569.929 112.341C570.64 112.341 571.219 112.593 571.666 113.098C572.118 113.596 572.345 114.197 572.345 114.902C572.345 115.025 572.335 115.151 572.316 115.281H568.25ZM569.929 113.136C569.476 113.136 569.101 113.266 568.803 113.525C568.506 113.777 568.321 114.116 568.25 114.543H571.491C571.42 114.084 571.239 113.735 570.948 113.495C570.656 113.256 570.317 113.136 569.929 113.136ZM577.323 110.526H578.167V117.318H577.323V116.484C576.902 117.124 576.291 117.444 575.489 117.444C574.81 117.444 574.231 117.199 573.752 116.707C573.273 116.209 573.034 115.604 573.034 114.893C573.034 114.181 573.273 113.58 573.752 113.088C574.231 112.59 574.81 112.341 575.489 112.341C576.291 112.341 576.902 112.661 577.323 113.301V110.526ZM575.595 116.629C576.087 116.629 576.498 116.465 576.828 116.135C577.158 115.798 577.323 115.384 577.323 114.893C577.323 114.401 577.158 113.99 576.828 113.66C576.498 113.324 576.087 113.156 575.595 113.156C575.11 113.156 574.703 113.324 574.373 113.66C574.043 113.99 573.878 114.401 573.878 114.893C573.878 115.384 574.043 115.798 574.373 116.135C574.703 116.465 575.11 116.629 575.595 116.629Z" fill="white"/>
<path d="M58.6887 87.0513L56.4598 79.289H57.5466L59.3208 85.6762L61.2059 79.289H62.2482L64.1334 85.6762L65.9076 79.289H66.9943L64.7654 87.0513H63.5678L61.7271 80.8526L59.8863 87.0513H58.6887ZM68.0192 84.7226C68.1153 85.2179 68.3408 85.6023 68.6956 85.8758C69.0579 86.1494 69.5014 86.2861 70.0263 86.2861C70.7582 86.2861 71.2904 86.0163 71.6231 85.4766L72.4437 85.9424C71.904 86.7777 71.0908 87.1954 70.0041 87.1954C69.1244 87.1954 68.4073 86.9219 67.8529 86.3748C67.3058 85.8204 67.0323 85.1218 67.0323 84.279C67.0323 83.4437 67.3021 82.7488 67.8418 82.1943C68.3815 81.6399 69.0801 81.3627 69.9376 81.3627C70.7508 81.3627 71.4124 81.651 71.9225 82.2276C72.44 82.7968 72.6987 83.4843 72.6987 84.2901C72.6987 84.4306 72.6876 84.5748 72.6655 84.7226H68.0192ZM69.9376 82.272C69.4201 82.272 68.9914 82.4198 68.6513 82.7155C68.3112 83.0038 68.1005 83.3919 68.0192 83.8798H71.7229C71.6416 83.355 71.4346 82.9558 71.1019 82.6822C70.7693 82.4087 70.3812 82.272 69.9376 82.272ZM73.8077 87.0513V78.9564H74.7724V87.0513H73.8077ZM78.8501 87.1954C78.0148 87.1954 77.3199 86.9182 76.7654 86.3638C76.211 85.8019 75.9337 85.107 75.9337 84.279C75.9337 83.4511 76.211 82.7599 76.7654 82.2054C77.3199 81.6436 78.0148 81.3627 78.8501 81.3627C79.3972 81.3627 79.8888 81.4957 80.3249 81.7619C80.7611 82.0206 81.0864 82.3718 81.3008 82.8153L80.4913 83.281C80.3508 82.9853 80.1327 82.7488 79.837 82.5714C79.5487 82.3939 79.2198 82.3052 78.8501 82.3052C78.2957 82.3052 77.8299 82.4937 77.4529 82.8708C77.0833 83.2478 76.8985 83.7172 76.8985 84.279C76.8985 84.8335 77.0833 85.2992 77.4529 85.6762C77.8299 86.0533 78.2957 86.2418 78.8501 86.2418C79.2198 86.2418 79.5524 86.1568 79.8481 85.9867C80.1438 85.8093 80.3693 85.5728 80.5245 85.277L81.3451 85.7539C81.1086 86.19 80.7685 86.5412 80.3249 86.8073C79.8814 87.0661 79.3898 87.1954 78.8501 87.1954ZM86.9014 86.3527C86.3321 86.9145 85.6409 87.1954 84.8277 87.1954C84.0145 87.1954 83.3233 86.9145 82.7541 86.3527C82.1923 85.7908 81.9114 85.0996 81.9114 84.279C81.9114 83.4585 82.1923 82.7673 82.7541 82.2054C83.3233 81.6436 84.0145 81.3627 84.8277 81.3627C85.6409 81.3627 86.3321 81.6436 86.9014 82.2054C87.4706 82.7673 87.7552 83.4585 87.7552 84.279C87.7552 85.0996 87.4706 85.7908 86.9014 86.3527ZM84.8277 86.2529C85.3822 86.2529 85.8479 86.0644 86.2249 85.6873C86.602 85.3103 86.7905 84.8409 86.7905 84.279C86.7905 83.7172 86.602 83.2478 86.2249 82.8708C85.8479 82.4937 85.3822 82.3052 84.8277 82.3052C84.2807 82.3052 83.8186 82.4937 83.4416 82.8708C83.0646 83.2478 82.8761 83.7172 82.8761 84.279C82.8761 84.8409 83.0646 85.3103 83.4416 85.6873C83.8186 86.0644 84.2807 86.2529 84.8277 86.2529ZM94.8805 81.3627C95.5015 81.3627 96.0042 81.566 96.3886 81.9726C96.773 82.3718 96.9652 82.9151 96.9652 83.6026V87.0513H96.0005V83.6359C96.0005 83.2071 95.8896 82.8745 95.6678 82.6379C95.446 82.4013 95.1503 82.283 94.7807 82.283C94.3667 82.283 94.0341 82.4235 93.7827 82.7044C93.5387 82.978 93.4168 83.3993 93.4168 83.9686V87.0513H92.452V83.6359C92.452 83.2071 92.3448 82.8745 92.1305 82.6379C91.9235 82.4013 91.6389 82.283 91.2766 82.283C90.87 82.283 90.53 82.4235 90.2564 82.7044C89.9903 82.9853 89.8572 83.4067 89.8572 83.9686V87.0513H88.8925V81.5068H89.8572V82.2498C90.2343 81.6584 90.785 81.3627 91.5095 81.3627C92.2561 81.3627 92.7995 81.6769 93.1395 82.3052C93.524 81.6769 94.1043 81.3627 94.8805 81.3627ZM98.9793 84.7226C99.0754 85.2179 99.3009 85.6023 99.6557 85.8758C100.018 86.1494 100.462 86.2861 100.986 86.2861C101.718 86.2861 102.251 86.0163 102.583 85.4766L103.404 85.9424C102.864 86.7777 102.051 87.1954 100.964 87.1954C100.085 87.1954 99.3674 86.9219 98.813 86.3748C98.2659 85.8204 97.9924 85.1218 97.9924 84.279C97.9924 83.4437 98.2622 82.7488 98.8019 82.1943C99.3416 81.6399 100.04 81.3627 100.898 81.3627C101.711 81.3627 102.373 81.651 102.883 82.2276C103.4 82.7968 103.659 83.4843 103.659 84.2901C103.659 84.4306 103.648 84.5748 103.626 84.7226H98.9793ZM100.898 82.272C100.38 82.272 99.9514 82.4198 99.6114 82.7155C99.2713 83.0038 99.0606 83.3919 98.9793 83.8798H102.683C102.602 83.355 102.395 82.9558 102.062 82.6822C101.729 82.4087 101.341 82.272 100.898 82.272ZM110.556 82.4383H109.081V85.4434C109.081 85.7169 109.133 85.9128 109.237 86.0311C109.348 86.142 109.514 86.2011 109.736 86.2085C109.957 86.2085 110.231 86.2011 110.556 86.1863V87.0513C109.713 87.1622 109.096 87.0956 108.704 86.8517C108.313 86.6003 108.117 86.1309 108.117 85.4434V82.4383H107.019V81.5068H108.117V80.2427L109.081 79.9544V81.5068H110.556V82.4383ZM116.096 86.3527C115.527 86.9145 114.836 87.1954 114.023 87.1954C113.21 87.1954 112.518 86.9145 111.949 86.3527C111.387 85.7908 111.106 85.0996 111.106 84.279C111.106 83.4585 111.387 82.7673 111.949 82.2054C112.518 81.6436 113.21 81.3627 114.023 81.3627C114.836 81.3627 115.527 81.6436 116.096 82.2054C116.666 82.7673 116.95 83.4585 116.95 84.279C116.95 85.0996 116.666 85.7908 116.096 86.3527ZM114.023 86.2529C114.577 86.2529 115.043 86.0644 115.42 85.6873C115.797 85.3103 115.985 84.8409 115.985 84.279C115.985 83.7172 115.797 83.2478 115.42 82.8708C115.043 82.4937 114.577 82.3052 114.023 82.3052C113.476 82.3052 113.014 82.4937 112.637 82.8708C112.26 83.2478 112.071 83.7172 112.071 84.279C112.071 84.8409 112.26 85.3103 112.637 85.6873C113.014 86.0644 113.476 86.2529 114.023 86.2529ZM125.45 81.5068H126.415V87.0513H125.45V86.0976C124.97 86.8295 124.271 87.1954 123.355 87.1954C122.578 87.1954 121.917 86.9145 121.37 86.3527C120.823 85.7834 120.549 85.0922 120.549 84.279C120.549 83.4659 120.823 82.7784 121.37 82.2165C121.917 81.6473 122.578 81.3627 123.355 81.3627C124.271 81.3627 124.97 81.7286 125.45 82.4605V81.5068ZM123.477 86.264C124.039 86.264 124.508 86.0754 124.885 85.6984C125.262 85.314 125.45 84.8409 125.45 84.279C125.45 83.7172 125.262 83.2478 124.885 82.8708C124.508 82.4863 124.039 82.2941 123.477 82.2941C122.922 82.2941 122.456 82.4863 122.079 82.8708C121.702 83.2478 121.514 83.7172 121.514 84.279C121.514 84.8409 121.702 85.314 122.079 85.6984C122.456 86.0754 122.922 86.264 123.477 86.264ZM127.877 87.0513V78.9564H128.842V87.0513H127.877ZM130.313 87.0513V78.9564H131.278V87.0513H130.313ZM138.283 81.3627C138.934 81.3627 139.455 81.5697 139.847 81.9836C140.239 82.3902 140.435 82.9447 140.435 83.647V87.0513H139.47V83.7024C139.47 83.2515 139.348 82.904 139.104 82.6601C138.86 82.4087 138.524 82.283 138.095 82.283C137.614 82.283 137.226 82.4346 136.93 82.7377C136.635 83.0334 136.487 83.4917 136.487 84.1127V87.0513H135.522V81.5068H136.487V82.3052C136.879 81.6769 137.477 81.3627 138.283 81.3627ZM142.458 84.7226C142.554 85.2179 142.779 85.6023 143.134 85.8758C143.496 86.1494 143.94 86.2861 144.465 86.2861C145.197 86.2861 145.729 86.0163 146.062 85.4766L146.882 85.9424C146.343 86.7777 145.529 87.1954 144.443 87.1954C143.563 87.1954 142.846 86.9219 142.291 86.3748C141.744 85.8204 141.471 85.1218 141.471 84.279C141.471 83.4437 141.741 82.7488 142.28 82.1943C142.82 81.6399 143.519 81.3627 144.376 81.3627C145.189 81.3627 145.851 81.651 146.361 82.2276C146.878 82.7968 147.137 83.4843 147.137 84.2901C147.137 84.4306 147.126 84.5748 147.104 84.7226H142.458ZM144.376 82.272C143.859 82.272 143.43 82.4198 143.09 82.7155C142.75 83.0038 142.539 83.3919 142.458 83.8798H146.161C146.08 83.355 145.873 82.9558 145.54 82.6822C145.208 82.4087 144.82 82.272 144.376 82.272ZM154.561 81.5068H155.57L153.851 87.0513H152.864L151.567 82.9484L150.27 87.0513H149.283L147.564 81.5068H148.573L149.793 85.7206L151.101 81.5068H152.033L153.341 85.7317L154.561 81.5068ZM164.037 87.0513L162.296 84.0794H160.466V87.0513H159.435V79.289H162.54C163.205 79.289 163.774 79.5256 164.247 79.9987C164.721 80.4645 164.957 81.03 164.957 81.6953C164.957 82.198 164.806 82.6564 164.503 83.0704C164.207 83.4843 163.822 83.7764 163.349 83.9464L165.179 87.0513H164.037ZM160.466 80.2538V83.148H162.54C162.924 83.148 163.249 83.0075 163.516 82.7266C163.789 82.4383 163.926 82.0945 163.926 81.6953C163.926 81.2961 163.789 80.9561 163.516 80.6752C163.249 80.3942 162.924 80.2538 162.54 80.2538H160.466ZM166.509 84.7226C166.605 85.2179 166.83 85.6023 167.185 85.8758C167.548 86.1494 167.991 86.2861 168.516 86.2861C169.248 86.2861 169.78 86.0163 170.113 85.4766L170.933 85.9424C170.394 86.7777 169.581 87.1954 168.494 87.1954C167.614 87.1954 166.897 86.9219 166.343 86.3748C165.796 85.8204 165.522 85.1218 165.522 84.279C165.522 83.4437 165.792 82.7488 166.331 82.1943C166.871 81.6399 167.57 81.3627 168.427 81.3627C169.24 81.3627 169.902 81.651 170.412 82.2276C170.93 82.7968 171.188 83.4843 171.188 84.2901C171.188 84.4306 171.177 84.5748 171.155 84.7226H166.509ZM168.427 82.272C167.91 82.272 167.481 82.4198 167.141 82.7155C166.801 83.0038 166.59 83.3919 166.509 83.8798H170.213C170.131 83.355 169.924 82.9558 169.592 82.6822C169.259 82.4087 168.871 82.272 168.427 82.272ZM172.297 87.0513V78.9564H173.262V87.0513H172.297ZM179.325 81.5068H180.289V87.0513H179.325V86.0976C178.844 86.8295 178.146 87.1954 177.229 87.1954C176.453 87.1954 175.791 86.9145 175.244 86.3527C174.697 85.7834 174.423 85.0922 174.423 84.279C174.423 83.4659 174.697 82.7784 175.244 82.2165C175.791 81.6473 176.453 81.3627 177.229 81.3627C178.146 81.3627 178.844 81.7286 179.325 82.4605V81.5068ZM177.351 86.264C177.913 86.264 178.382 86.0754 178.759 85.6984C179.136 85.314 179.325 84.8409 179.325 84.279C179.325 83.7172 179.136 83.2478 178.759 82.8708C178.382 82.4863 177.913 82.2941 177.351 82.2941C176.796 82.2941 176.331 82.4863 175.954 82.8708C175.577 83.2478 175.388 83.7172 175.388 84.279C175.388 84.8409 175.577 85.314 175.954 85.6984C176.331 86.0754 176.796 86.264 177.351 86.264ZM184.767 82.4383H183.292V85.4434C183.292 85.7169 183.344 85.9128 183.448 86.0311C183.559 86.142 183.725 86.2011 183.947 86.2085C184.169 86.2085 184.442 86.2011 184.767 86.1863V87.0513C183.925 87.1622 183.307 87.0956 182.915 86.8517C182.524 86.6003 182.328 86.1309 182.328 85.4434V82.4383H181.23V81.5068H182.328V80.2427L183.292 79.9544V81.5068H184.767V82.4383ZM186.397 80.4977C186.213 80.4977 186.057 80.4349 185.932 80.3092C185.806 80.1836 185.743 80.032 185.743 79.8546C185.743 79.6772 185.806 79.5256 185.932 79.3999C186.057 79.2669 186.213 79.2003 186.397 79.2003C186.575 79.2003 186.726 79.2669 186.852 79.3999C186.978 79.5256 187.041 79.6772 187.041 79.8546C187.041 80.032 186.978 80.1836 186.852 80.3092C186.726 80.4349 186.575 80.4977 186.397 80.4977ZM185.909 87.0513V81.5068H186.874V87.0513H185.909ZM193.025 86.3527C192.456 86.9145 191.765 87.1954 190.952 87.1954C190.139 87.1954 189.447 86.9145 188.878 86.3527C188.316 85.7908 188.035 85.0996 188.035 84.279C188.035 83.4585 188.316 82.7673 188.878 82.2054C189.447 81.6436 190.139 81.3627 190.952 81.3627C191.765 81.3627 192.456 81.6436 193.025 82.2054C193.595 82.7673 193.879 83.4585 193.879 84.279C193.879 85.0996 193.595 85.7908 193.025 86.3527ZM190.952 86.2529C191.506 86.2529 191.972 86.0644 192.349 85.6873C192.726 85.3103 192.915 84.8409 192.915 84.279C192.915 83.7172 192.726 83.2478 192.349 82.8708C191.972 82.4937 191.506 82.3052 190.952 82.3052C190.405 82.3052 189.943 82.4937 189.566 82.8708C189.189 83.2478 189 83.7172 189 84.279C189 84.8409 189.189 85.3103 189.566 85.6873C189.943 86.0644 190.405 86.2529 190.952 86.2529ZM197.778 81.3627C198.428 81.3627 198.95 81.5697 199.341 81.9836C199.733 82.3902 199.929 82.9447 199.929 83.647V87.0513H198.964V83.7024C198.964 83.2515 198.842 82.904 198.598 82.6601C198.354 82.4087 198.018 82.283 197.589 82.283C197.109 82.283 196.721 82.4346 196.425 82.7377C196.129 83.0334 195.981 83.4917 195.981 84.1127V87.0513H195.017V81.5068H195.981V82.3052C196.373 81.6769 196.972 81.3627 197.778 81.3627ZM202.342 86.1309H205.291V87.0513H201.022V86.4081L203.85 82.4272H201.133V81.5068H205.18V82.15L202.342 86.1309ZM207.883 85.9091L207.162 88.6037H206.33L206.774 85.9091H207.883ZM218.55 81.5068H219.559L217.84 87.0513H216.853L215.556 82.9484L214.258 87.0513H213.271L211.552 81.5068H212.562L213.781 85.7206L215.09 81.5068H216.021L217.33 85.7317L218.55 81.5068ZM221.011 84.7226C221.107 85.2179 221.333 85.6023 221.688 85.8758C222.05 86.1494 222.493 86.2861 223.018 86.2861C223.75 86.2861 224.282 86.0163 224.615 85.4766L225.436 85.9424C224.896 86.7777 224.083 87.1954 222.996 87.1954C222.116 87.1954 221.399 86.9219 220.845 86.3748C220.298 85.8204 220.024 85.1218 220.024 84.279C220.024 83.4437 220.294 82.7488 220.834 82.1943C221.373 81.6399 222.072 81.3627 222.93 81.3627C223.743 81.3627 224.404 81.651 224.915 82.2276C225.432 82.7968 225.691 83.4843 225.691 84.2901C225.691 84.4306 225.68 84.5748 225.657 84.7226H221.011ZM222.93 82.272C222.412 82.272 221.983 82.4198 221.643 82.7155C221.303 83.0038 221.093 83.3919 221.011 83.8798H224.715C224.634 83.355 224.427 82.9558 224.094 82.6822C223.761 82.4087 223.373 82.272 222.93 82.272ZM232.333 81.3627C232.984 81.3627 233.505 81.5697 233.897 81.9836C234.288 82.3902 234.484 82.9447 234.484 83.647V87.0513H233.52V83.7024C233.52 83.2515 233.398 82.904 233.154 82.6601C232.91 82.4087 232.573 82.283 232.145 82.283C231.664 82.283 231.276 82.4346 230.98 82.7377C230.685 83.0334 230.537 83.4917 230.537 84.1127V87.0513H229.572V79.289H230.537V82.3052C230.928 81.6769 231.527 81.3627 232.333 81.3627ZM240.422 81.5068H241.387V87.0513H240.422V86.0976C239.941 86.8295 239.243 87.1954 238.326 87.1954C237.55 87.1954 236.888 86.9145 236.341 86.3527C235.794 85.7834 235.521 85.0922 235.521 84.279C235.521 83.4659 235.794 82.7784 236.341 82.2165C236.888 81.6473 237.55 81.3627 238.326 81.3627C239.243 81.3627 239.941 81.7286 240.422 82.4605V81.5068ZM238.448 86.264C239.01 86.264 239.479 86.0754 239.856 85.6984C240.233 85.314 240.422 84.8409 240.422 84.279C240.422 83.7172 240.233 83.2478 239.856 82.8708C239.479 82.4863 239.01 82.2941 238.448 82.2941C237.894 82.2941 237.428 82.4863 237.051 82.8708C236.674 83.2478 236.485 83.7172 236.485 84.279C236.485 84.8409 236.674 85.314 237.051 85.6984C237.428 86.0754 237.894 86.264 238.448 86.264ZM246.729 81.5068H247.772L245.554 87.0513H244.423L242.205 81.5068H243.248L244.988 86.02L246.729 81.5068ZM249.048 84.7226C249.144 85.2179 249.369 85.6023 249.724 85.8758C250.086 86.1494 250.53 86.2861 251.055 86.2861C251.786 86.2861 252.319 86.0163 252.651 85.4766L253.472 85.9424C252.932 86.7777 252.119 87.1954 251.032 87.1954C250.153 87.1954 249.436 86.9219 248.881 86.3748C248.334 85.8204 248.061 85.1218 248.061 84.279C248.061 83.4437 248.33 82.7488 248.87 82.1943C249.41 81.6399 250.108 81.3627 250.966 81.3627C251.779 81.3627 252.441 81.651 252.951 82.2276C253.468 82.7968 253.727 83.4843 253.727 84.2901C253.727 84.4306 253.716 84.5748 253.694 84.7226H249.048ZM250.966 82.272C250.448 82.272 250.02 82.4198 249.68 82.7155C249.34 83.0038 249.129 83.3919 249.048 83.8798H252.751C252.67 83.355 252.463 82.9558 252.13 82.6822C251.798 82.4087 251.409 82.272 250.966 82.272ZM261.434 81.5068H262.399V87.0513H261.434V86.2529C261.042 86.8812 260.443 87.1954 259.637 87.1954C258.987 87.1954 258.466 86.9921 258.074 86.5855C257.682 86.1716 257.486 85.6134 257.486 84.9111V81.5068H258.451V84.8557C258.451 85.3066 258.573 85.6578 258.817 85.9091C259.061 86.1531 259.397 86.275 259.826 86.275C260.307 86.275 260.695 86.1272 260.99 85.8315C261.286 85.5284 261.434 85.0664 261.434 84.4454V81.5068ZM266.928 81.3627C267.704 81.3627 268.366 81.6473 268.913 82.2165C269.46 82.7784 269.733 83.4659 269.733 84.279C269.733 85.0922 269.46 85.7834 268.913 86.3527C268.366 86.9145 267.704 87.1954 266.928 87.1954C266.011 87.1954 265.313 86.8295 264.832 86.0976V89.269H263.867V81.5068H264.832V82.4605C265.313 81.7286 266.011 81.3627 266.928 81.3627ZM266.806 86.264C267.36 86.264 267.826 86.0754 268.203 85.6984C268.58 85.314 268.769 84.8409 268.769 84.279C268.769 83.7172 268.58 83.2478 268.203 82.8708C267.826 82.4863 267.36 82.2941 266.806 82.2941C266.244 82.2941 265.775 82.4863 265.398 82.8708C265.021 83.2478 264.832 83.7172 264.832 84.279C264.832 84.8409 265.021 85.314 265.398 85.6984C265.775 86.0754 266.244 86.264 266.806 86.264ZM275.475 79.289H276.44V87.0513H275.475V86.0976C274.995 86.8295 274.296 87.1954 273.38 87.1954C272.603 87.1954 271.942 86.9145 271.395 86.3527C270.848 85.7834 270.574 85.0922 270.574 84.279C270.574 83.4659 270.848 82.7784 271.395 82.2165C271.942 81.6473 272.603 81.3627 273.38 81.3627C274.296 81.3627 274.995 81.7286 275.475 82.4605V79.289ZM273.502 86.264C274.063 86.264 274.533 86.0754 274.91 85.6984C275.287 85.314 275.475 84.8409 275.475 84.279C275.475 83.7172 275.287 83.2478 274.91 82.8708C274.533 82.4863 274.063 82.2941 273.502 82.2941C272.947 82.2941 272.481 82.4863 272.104 82.8708C271.727 83.2478 271.539 83.7172 271.539 84.279C271.539 84.8409 271.727 85.314 272.104 85.6984C272.481 86.0754 272.947 86.264 273.502 86.264ZM282.493 81.5068H283.457V87.0513H282.493V86.0976C282.012 86.8295 281.313 87.1954 280.397 87.1954C279.621 87.1954 278.959 86.9145 278.412 86.3527C277.865 85.7834 277.591 85.0922 277.591 84.279C277.591 83.4659 277.865 82.7784 278.412 82.2165C278.959 81.6473 279.621 81.3627 280.397 81.3627C281.313 81.3627 282.012 81.7286 282.493 82.4605V81.5068ZM280.519 86.264C281.081 86.264 281.55 86.0754 281.927 85.6984C282.304 85.314 282.493 84.8409 282.493 84.279C282.493 83.7172 282.304 83.2478 281.927 82.8708C281.55 82.4863 281.081 82.2941 280.519 82.2941C279.964 82.2941 279.499 82.4863 279.122 82.8708C278.745 83.2478 278.556 83.7172 278.556 84.279C278.556 84.8409 278.745 85.314 279.122 85.6984C279.499 86.0754 279.964 86.264 280.519 86.264ZM287.935 82.4383H286.46V85.4434C286.46 85.7169 286.512 85.9128 286.616 86.0311C286.726 86.142 286.893 86.2011 287.115 86.2085C287.336 86.2085 287.61 86.2011 287.935 86.1863V87.0513C287.092 87.1622 286.475 87.0956 286.083 86.8517C285.691 86.6003 285.496 86.1309 285.496 85.4434V82.4383H284.398V81.5068H285.496V80.2427L286.46 79.9544V81.5068H287.935V82.4383ZM289.472 84.7226C289.568 85.2179 289.794 85.6023 290.149 85.8758C290.511 86.1494 290.954 86.2861 291.479 86.2861C292.211 86.2861 292.743 86.0163 293.076 85.4766L293.897 85.9424C293.357 86.7777 292.544 87.1954 291.457 87.1954C290.577 87.1954 289.86 86.9219 289.306 86.3748C288.759 85.8204 288.485 85.1218 288.485 84.279C288.485 83.4437 288.755 82.7488 289.295 82.1943C289.834 81.6399 290.533 81.3627 291.391 81.3627C292.204 81.3627 292.865 81.651 293.375 82.2276C293.893 82.7968 294.152 83.4843 294.152 84.2901C294.152 84.4306 294.141 84.5748 294.118 84.7226H289.472ZM291.391 82.272C290.873 82.272 290.444 82.4198 290.104 82.7155C289.764 83.0038 289.553 83.3919 289.472 83.8798H293.176C293.095 83.355 292.888 82.9558 292.555 82.6822C292.222 82.4087 291.834 82.272 291.391 82.272ZM299.841 79.289H300.805V87.0513H299.841V86.0976C299.36 86.8295 298.661 87.1954 297.745 87.1954C296.969 87.1954 296.307 86.9145 295.76 86.3527C295.213 85.7834 294.939 85.0922 294.939 84.279C294.939 83.4659 295.213 82.7784 295.76 82.2165C296.307 81.6473 296.969 81.3627 297.745 81.3627C298.661 81.3627 299.36 81.7286 299.841 82.4605V79.289ZM297.867 86.264C298.429 86.264 298.898 86.0754 299.275 85.6984C299.652 85.314 299.841 84.8409 299.841 84.279C299.841 83.7172 299.652 83.2478 299.275 82.8708C298.898 82.4863 298.429 82.2941 297.867 82.2941C297.312 82.2941 296.847 82.4863 296.47 82.8708C296.093 83.2478 295.904 83.7172 295.904 84.279C295.904 84.8409 296.093 85.314 296.47 85.6984C296.847 86.0754 297.312 86.264 297.867 86.264ZM305.771 80.4977C305.586 80.4977 305.431 80.4349 305.305 80.3092C305.18 80.1836 305.117 80.032 305.117 79.8546C305.117 79.6772 305.18 79.5256 305.305 79.3999C305.431 79.2669 305.586 79.2003 305.771 79.2003C305.948 79.2003 306.1 79.2669 306.226 79.3999C306.351 79.5256 306.414 79.6772 306.414 79.8546C306.414 80.032 306.351 80.1836 306.226 80.3092C306.1 80.4349 305.948 80.4977 305.771 80.4977ZM305.283 87.3839V81.5068H306.248V87.3839C306.248 88.101 306.067 88.6296 305.705 88.9696C305.342 89.3171 304.81 89.465 304.108 89.4132V88.4817C304.514 88.5187 304.81 88.4522 304.995 88.2821C305.187 88.1121 305.283 87.8127 305.283 87.3839ZM311.54 81.5068H312.504V87.0513H311.54V86.2529C311.148 86.8812 310.549 87.1954 309.743 87.1954C309.093 87.1954 308.572 86.9921 308.18 86.5855C307.788 86.1716 307.592 85.6134 307.592 84.9111V81.5068H308.557V84.8557C308.557 85.3066 308.679 85.6578 308.923 85.9091C309.167 86.1531 309.503 86.275 309.932 86.275C310.412 86.275 310.8 86.1272 311.096 85.8315C311.392 85.5284 311.54 85.0664 311.54 84.4454V81.5068ZM314.794 83.0038C314.794 83.2182 314.901 83.3919 315.116 83.525C315.33 83.6507 315.589 83.7542 315.892 83.8355C316.195 83.9094 316.498 83.9981 316.801 84.1016C317.104 84.1977 317.363 84.3678 317.577 84.6117C317.792 84.8483 317.899 85.1551 317.899 85.5321C317.899 86.0348 317.703 86.4377 317.311 86.7408C316.927 87.0439 316.431 87.1954 315.825 87.1954C315.286 87.1954 314.824 87.0771 314.439 86.8406C314.055 86.604 313.781 86.2898 313.619 85.898L314.45 85.4212C314.539 85.6873 314.705 85.898 314.949 86.0533C315.193 86.2085 315.485 86.2861 315.825 86.2861C316.143 86.2861 316.406 86.227 316.613 86.1087C316.82 85.983 316.923 85.7908 316.923 85.5321C316.923 85.3177 316.816 85.1477 316.601 85.022C316.387 84.8889 316.128 84.7854 315.825 84.7115C315.522 84.6302 315.219 84.5378 314.916 84.4343C314.613 84.3308 314.354 84.1608 314.14 83.9242C313.925 83.6876 313.818 83.3845 313.818 83.0149C313.818 82.5344 314.003 82.1389 314.373 81.8284C314.75 81.5179 315.219 81.3627 315.781 81.3627C316.232 81.3627 316.631 81.4662 316.978 81.6732C317.333 81.8728 317.599 82.1537 317.777 82.5159L316.967 82.9706C316.768 82.4974 316.372 82.2609 315.781 82.2609C315.507 82.2609 315.274 82.3274 315.082 82.4605C314.89 82.5861 314.794 82.7673 314.794 83.0038ZM321.841 82.4383H320.366V85.4434C320.366 85.7169 320.418 85.9128 320.521 86.0311C320.632 86.142 320.798 86.2011 321.02 86.2085C321.242 86.2085 321.515 86.2011 321.841 86.1863V87.0513C320.998 87.1622 320.381 87.0956 319.989 86.8517C319.597 86.6003 319.401 86.1309 319.401 85.4434V82.4383H318.303V81.5068H319.401V80.2427L320.366 79.9544V81.5068H321.841V82.4383ZM330.378 81.5068H331.343V87.0513H330.378V86.0976C329.898 86.8295 329.199 87.1954 328.283 87.1954C327.506 87.1954 326.845 86.9145 326.298 86.3527C325.751 85.7834 325.477 85.0922 325.477 84.279C325.477 83.4659 325.751 82.7784 326.298 82.2165C326.845 81.6473 327.506 81.3627 328.283 81.3627C329.199 81.3627 329.898 81.7286 330.378 82.4605V81.5068ZM328.405 86.264C328.966 86.264 329.436 86.0754 329.813 85.6984C330.19 85.314 330.378 84.8409 330.378 84.279C330.378 83.7172 330.19 83.2478 329.813 82.8708C329.436 82.4863 328.966 82.2941 328.405 82.2941C327.85 82.2941 327.384 82.4863 327.007 82.8708C326.63 83.2478 326.442 83.7172 326.442 84.279C326.442 84.8409 326.63 85.314 327.007 85.6984C327.384 86.0754 327.85 86.264 328.405 86.264ZM335.865 81.3627C336.641 81.3627 337.303 81.6473 337.85 82.2165C338.397 82.7784 338.671 83.4659 338.671 84.279C338.671 85.0922 338.397 85.7834 337.85 86.3527C337.303 86.9145 336.641 87.1954 335.865 87.1954C334.949 87.1954 334.25 86.8295 333.769 86.0976V87.0513H332.805V79.289H333.769V82.4605C334.25 81.7286 334.949 81.3627 335.865 81.3627ZM335.743 86.264C336.298 86.264 336.763 86.0754 337.14 85.6984C337.518 85.314 337.706 84.8409 337.706 84.279C337.706 83.7172 337.518 83.2478 337.14 82.8708C336.763 82.4863 336.298 82.2941 335.743 82.2941C335.181 82.2941 334.712 82.4863 334.335 82.8708C333.958 83.2478 333.769 83.7172 333.769 84.279C333.769 84.8409 333.958 85.314 334.335 85.6984C334.712 86.0754 335.181 86.264 335.743 86.264ZM344.501 86.3527C343.932 86.9145 343.241 87.1954 342.428 87.1954C341.615 87.1954 340.923 86.9145 340.354 86.3527C339.792 85.7908 339.511 85.0996 339.511 84.279C339.511 83.4585 339.792 82.7673 340.354 82.2054C340.923 81.6436 341.615 81.3627 342.428 81.3627C343.241 81.3627 343.932 81.6436 344.501 82.2054C345.071 82.7673 345.355 83.4585 345.355 84.279C345.355 85.0996 345.071 85.7908 344.501 86.3527ZM342.428 86.2529C342.982 86.2529 343.448 86.0644 343.825 85.6873C344.202 85.3103 344.391 84.8409 344.391 84.279C344.391 83.7172 344.202 83.2478 343.825 82.8708C343.448 82.4937 342.982 82.3052 342.428 82.3052C341.881 82.3052 341.419 82.4937 341.042 82.8708C340.665 83.2478 340.476 83.7172 340.476 84.279C340.476 84.8409 340.665 85.3103 341.042 85.6873C341.419 86.0644 341.881 86.2529 342.428 86.2529ZM350.318 81.5068H351.283V87.0513H350.318V86.2529C349.926 86.8812 349.328 87.1954 348.522 87.1954C347.871 87.1954 347.35 86.9921 346.958 86.5855C346.567 86.1716 346.371 85.6134 346.371 84.9111V81.5068H347.335V84.8557C347.335 85.3066 347.457 85.6578 347.701 85.9091C347.945 86.1531 348.282 86.275 348.71 86.275C349.191 86.275 349.579 86.1272 349.875 85.8315C350.17 85.5284 350.318 85.0664 350.318 84.4454V81.5068ZM353.716 82.4383C354.034 81.7508 354.611 81.407 355.446 81.407V82.4161C354.973 82.3939 354.567 82.5196 354.227 82.7931C353.887 83.0667 353.716 83.5065 353.716 84.1127V87.0513H352.752V81.5068H353.716V82.4383ZM359.839 84.7226C359.935 85.2179 360.161 85.6023 360.515 85.8758C360.878 86.1494 361.321 86.2861 361.846 86.2861C362.578 86.2861 363.11 86.0163 363.443 85.4766L364.263 85.9424C363.724 86.7777 362.911 87.1954 361.824 87.1954C360.944 87.1954 360.227 86.9219 359.673 86.3748C359.126 85.8204 358.852 85.1218 358.852 84.279C358.852 83.4437 359.122 82.7488 359.662 82.1943C360.201 81.6399 360.9 81.3627 361.757 81.3627C362.571 81.3627 363.232 81.651 363.742 82.2276C364.26 82.7968 364.518 83.4843 364.518 84.2901C364.518 84.4306 364.507 84.5748 364.485 84.7226H359.839ZM361.757 82.272C361.24 82.272 360.811 82.4198 360.471 82.7155C360.131 83.0038 359.92 83.3919 359.839 83.8798H363.543C363.461 83.355 363.254 82.9558 362.922 82.6822C362.589 82.4087 362.201 82.272 361.757 82.272ZM369.292 81.5068H370.334L368.117 87.0513H366.985L364.768 81.5068H365.81L367.551 86.02L369.292 81.5068ZM371.61 84.7226C371.706 85.2179 371.932 85.6023 372.286 85.8758C372.649 86.1494 373.092 86.2861 373.617 86.2861C374.349 86.2861 374.881 86.0163 375.214 85.4766L376.035 85.9424C375.495 86.7777 374.682 87.1954 373.595 87.1954C372.715 87.1954 371.998 86.9219 371.444 86.3748C370.897 85.8204 370.623 85.1218 370.623 84.279C370.623 83.4437 370.893 82.7488 371.433 82.1943C371.972 81.6399 372.671 81.3627 373.528 81.3627C374.342 81.3627 375.003 81.651 375.513 82.2276C376.031 82.7968 376.29 83.4843 376.29 84.2901C376.29 84.4306 376.278 84.5748 376.256 84.7226H371.61ZM373.528 82.272C373.011 82.272 372.582 82.4198 372.242 82.7155C371.902 83.0038 371.691 83.3919 371.61 83.8798H375.314C375.232 83.355 375.025 82.9558 374.693 82.6822C374.36 82.4087 373.972 82.272 373.528 82.272ZM378.363 82.4383C378.681 81.7508 379.258 81.407 380.093 81.407V82.4161C379.62 82.3939 379.213 82.5196 378.873 82.7931C378.533 83.0667 378.363 83.5065 378.363 84.1127V87.0513H377.399V81.5068H378.363V82.4383ZM385.026 81.5068H386.058L383.795 87.395C383.559 88.0234 383.226 88.5002 382.797 88.8255C382.376 89.1582 381.888 89.306 381.334 89.269V88.3708C382.014 88.4226 382.513 88.0456 382.831 87.2398L382.93 87.0291L380.513 81.5068H381.544L383.429 85.8537L385.026 81.5068ZM389.879 82.4383H388.404V85.4434C388.404 85.7169 388.456 85.9128 388.56 86.0311C388.671 86.142 388.837 86.2011 389.059 86.2085C389.28 86.2085 389.554 86.2011 389.879 86.1863V87.0513C389.037 87.1622 388.419 87.0956 388.027 86.8517C387.636 86.6003 387.44 86.1309 387.44 85.4434V82.4383H386.342V81.5068H387.44V80.2427L388.404 79.9544V81.5068H389.879V82.4383ZM393.783 81.3627C394.433 81.3627 394.954 81.5697 395.346 81.9836C395.738 82.3902 395.934 82.9447 395.934 83.647V87.0513H394.969V83.7024C394.969 83.2515 394.847 82.904 394.603 82.6601C394.359 82.4087 394.023 82.283 393.594 82.283C393.114 82.283 392.725 82.4346 392.43 82.7377C392.134 83.0334 391.986 83.4917 391.986 84.1127V87.0513H391.021V79.289H391.986V82.3052C392.378 81.6769 392.977 81.3627 393.783 81.3627ZM397.768 80.4977C397.584 80.4977 397.428 80.4349 397.303 80.3092C397.177 80.1836 397.114 80.032 397.114 79.8546C397.114 79.6772 397.177 79.5256 397.303 79.3999C397.428 79.2669 397.584 79.2003 397.768 79.2003C397.946 79.2003 398.097 79.2669 398.223 79.3999C398.349 79.5256 398.412 79.6772 398.412 79.8546C398.412 80.032 398.349 80.1836 398.223 80.3092C398.097 80.4349 397.946 80.4977 397.768 80.4977ZM397.281 87.0513V81.5068H398.245V87.0513H397.281ZM402.478 81.3627C403.129 81.3627 403.65 81.5697 404.042 81.9836C404.434 82.3902 404.629 82.9447 404.629 83.647V87.0513H403.665V83.7024C403.665 83.2515 403.543 82.904 403.299 82.6601C403.055 82.4087 402.718 82.283 402.29 82.283C401.809 82.283 401.421 82.4346 401.125 82.7377C400.83 83.0334 400.682 83.4917 400.682 84.1127V87.0513H399.717V81.5068H400.682V82.3052C401.074 81.6769 401.672 81.3627 402.478 81.3627ZM410.578 81.5068H411.532V86.8184C411.532 87.639 411.255 88.2747 410.7 88.7257C410.146 89.184 409.48 89.4132 408.704 89.4132C408.083 89.4132 407.547 89.2949 407.096 89.0584C406.645 88.8292 406.305 88.4965 406.076 88.0604L406.919 87.5835C407.222 88.2045 407.824 88.515 408.726 88.515C409.303 88.515 409.754 88.3635 410.079 88.0604C410.412 87.7573 410.578 87.3433 410.578 86.8184V86.0311C410.09 86.7704 409.395 87.14 408.493 87.14C407.702 87.14 407.033 86.8591 406.486 86.2972C405.939 85.7354 405.666 85.0516 405.666 84.2458C405.666 83.44 405.939 82.7599 406.486 82.2054C407.033 81.6436 407.702 81.3627 408.493 81.3627C409.403 81.3627 410.098 81.7286 410.578 82.4605V81.5068ZM407.196 85.6541C407.573 86.0311 408.042 86.2196 408.604 86.2196C409.166 86.2196 409.636 86.0311 410.013 85.6541C410.39 85.277 410.578 84.8076 410.578 84.2458C410.578 83.6913 410.39 83.2256 410.013 82.8486C409.636 82.4716 409.166 82.283 408.604 82.283C408.042 82.283 407.573 82.4716 407.196 82.8486C406.819 83.2256 406.63 83.6913 406.63 84.2458C406.63 84.8076 406.819 85.277 407.196 85.6541ZM418.782 82.4383H417.307V85.4434C417.307 85.7169 417.359 85.9128 417.462 86.0311C417.573 86.142 417.739 86.2011 417.961 86.2085C418.183 86.2085 418.457 86.2011 418.782 86.1863V87.0513C417.939 87.1622 417.322 87.0956 416.93 86.8517C416.538 86.6003 416.342 86.1309 416.342 85.4434V82.4383H415.244V81.5068H416.342V80.2427L417.307 79.9544V81.5068H418.782V82.4383ZM424.322 86.3527C423.753 86.9145 423.062 87.1954 422.248 87.1954C421.435 87.1954 420.744 86.9145 420.175 86.3527C419.613 85.7908 419.332 85.0996 419.332 84.279C419.332 83.4585 419.613 82.7673 420.175 82.2054C420.744 81.6436 421.435 81.3627 422.248 81.3627C423.062 81.3627 423.753 81.6436 424.322 82.2054C424.891 82.7673 425.176 83.4585 425.176 84.279C425.176 85.0996 424.891 85.7908 424.322 86.3527ZM422.248 86.2529C422.803 86.2529 423.269 86.0644 423.646 85.6873C424.023 85.3103 424.211 84.8409 424.211 84.279C424.211 83.7172 424.023 83.2478 423.646 82.8708C423.269 82.4937 422.803 82.3052 422.248 82.3052C421.701 82.3052 421.239 82.4937 420.862 82.8708C420.485 83.2478 420.297 83.7172 420.297 84.279C420.297 84.8409 420.485 85.3103 420.862 85.6873C421.239 86.0644 421.701 86.2529 422.248 86.2529ZM59.6756 101.363C60.3262 101.363 60.8473 101.57 61.2392 101.984C61.631 102.39 61.8269 102.945 61.8269 103.647V107.051H60.8621V103.702C60.8621 103.251 60.7402 102.904 60.4962 102.66C60.2522 102.409 59.9159 102.283 59.4871 102.283C59.0066 102.283 58.6185 102.435 58.3228 102.738C58.0271 103.033 57.8792 103.492 57.8792 104.113V107.051H56.9145V99.289H57.8792V102.305C58.271 101.677 58.8698 101.363 59.6756 101.363ZM63.8501 104.723C63.9462 105.218 64.1716 105.602 64.5265 105.876C64.8887 106.149 65.3323 106.286 65.8572 106.286C66.589 106.286 67.1213 106.016 67.454 105.477L68.2745 105.942C67.7349 106.778 66.9217 107.195 65.835 107.195C64.9553 107.195 64.2382 106.922 63.6837 106.375C63.1367 105.82 62.8632 105.122 62.8632 104.279C62.8632 103.444 63.133 102.749 63.6726 102.194C64.2123 101.64 64.9109 101.363 65.7684 101.363C66.5816 101.363 67.2433 101.651 67.7534 102.228C68.2708 102.797 68.5296 103.484 68.5296 104.29C68.5296 104.431 68.5185 104.575 68.4963 104.723H63.8501ZM65.7684 102.272C65.251 102.272 64.8222 102.42 64.4821 102.716C64.1421 103.004 63.9314 103.392 63.8501 103.88H67.5538C67.4724 103.355 67.2654 102.956 66.9328 102.682C66.6001 102.409 66.212 102.272 65.7684 102.272ZM69.6386 107.051V98.9564H70.6033V107.051H69.6386ZM75.1356 101.363C75.9118 101.363 76.5735 101.647 77.1205 102.217C77.6676 102.778 77.9411 103.466 77.9411 104.279C77.9411 105.092 77.6676 105.783 77.1205 106.353C76.5735 106.915 75.9118 107.195 75.1356 107.195C74.2189 107.195 73.5203 106.829 73.0398 106.098V109.269H72.0751V101.507H73.0398V102.46C73.5203 101.729 74.2189 101.363 75.1356 101.363ZM75.0136 106.264C75.5681 106.264 76.0338 106.075 76.4108 105.698C76.7879 105.314 76.9764 104.841 76.9764 104.279C76.9764 103.717 76.7879 103.248 76.4108 102.871C76.0338 102.486 75.5681 102.294 75.0136 102.294C74.4518 102.294 73.9824 102.486 73.6053 102.871C73.2283 103.248 73.0398 103.717 73.0398 104.279C73.0398 104.841 73.2283 105.314 73.6053 105.698C73.9824 106.075 74.4518 106.264 75.0136 106.264ZM84.8807 102.438H83.4058V105.443C83.4058 105.717 83.4576 105.913 83.5611 106.031C83.672 106.142 83.8383 106.201 84.0601 106.209C84.2819 106.209 84.5554 106.201 84.8807 106.186V107.051C84.0379 107.162 83.4206 107.096 83.0288 106.852C82.637 106.6 82.4411 106.131 82.4411 105.443V102.438H81.3433V101.507H82.4411V100.243L83.4058 99.9544V101.507H84.8807V102.438ZM90.4208 106.353C89.8515 106.915 89.1603 107.195 88.3472 107.195C87.534 107.195 86.8428 106.915 86.2735 106.353C85.7117 105.791 85.4308 105.1 85.4308 104.279C85.4308 103.458 85.7117 102.767 86.2735 102.205C86.8428 101.644 87.534 101.363 88.3472 101.363C89.1603 101.363 89.8515 101.644 90.4208 102.205C90.99 102.767 91.2746 103.458 91.2746 104.279C91.2746 105.1 90.99 105.791 90.4208 106.353ZM88.3472 106.253C88.9016 106.253 89.3673 106.064 89.7444 105.687C90.1214 105.31 90.3099 104.841 90.3099 104.279C90.3099 103.717 90.1214 103.248 89.7444 102.871C89.3673 102.494 88.9016 102.305 88.3472 102.305C87.8001 102.305 87.3381 102.494 86.961 102.871C86.584 103.248 86.3955 103.717 86.3955 104.279C86.3955 104.841 86.584 105.31 86.961 105.687C87.3381 106.064 87.8001 106.253 88.3472 106.253ZM96.0158 103.004C96.0158 103.218 96.123 103.392 96.3374 103.525C96.5518 103.651 96.8105 103.754 97.1136 103.835C97.4167 103.909 97.7198 103.998 98.0229 104.102C98.326 104.198 98.5847 104.368 98.7991 104.612C99.0135 104.848 99.1207 105.155 99.1207 105.532C99.1207 106.035 98.9248 106.438 98.533 106.741C98.1486 107.044 97.6533 107.195 97.0471 107.195C96.5074 107.195 96.0454 107.077 95.661 106.841C95.2766 106.604 95.003 106.29 94.8404 105.898L95.6721 105.421C95.7608 105.687 95.9271 105.898 96.1711 106.053C96.415 106.209 96.707 106.286 97.0471 106.286C97.365 106.286 97.6274 106.227 97.8344 106.109C98.0414 105.983 98.1449 105.791 98.1449 105.532C98.1449 105.318 98.0377 105.148 97.8233 105.022C97.6089 104.889 97.3502 104.785 97.0471 104.712C96.744 104.63 96.4409 104.538 96.1378 104.434C95.8347 104.331 95.576 104.161 95.3616 103.924C95.1472 103.688 95.04 103.385 95.04 103.015C95.04 102.534 95.2248 102.139 95.5944 101.828C95.9715 101.518 96.4409 101.363 97.0027 101.363C97.4537 101.363 97.8529 101.466 98.2003 101.673C98.5552 101.873 98.8213 102.154 98.9987 102.516L98.1892 102.971C97.9896 102.497 97.5941 102.261 97.0027 102.261C96.7292 102.261 96.4963 102.327 96.3041 102.46C96.1119 102.586 96.0158 102.767 96.0158 103.004ZM103.063 102.438H101.588V105.443C101.588 105.717 101.639 105.913 101.743 106.031C101.854 106.142 102.02 106.201 102.242 106.209C102.464 106.209 102.737 106.201 103.063 106.186V107.051C102.22 107.162 101.603 107.096 101.211 106.852C100.819 106.6 100.623 106.131 100.623 105.443V102.438H99.5252V101.507H100.623V100.243L101.588 99.9544V101.507H103.063V102.438ZM108.514 101.507H109.479V107.051H108.514V106.098C108.033 106.829 107.335 107.195 106.418 107.195C105.642 107.195 104.98 106.915 104.433 106.353C103.886 105.783 103.613 105.092 103.613 104.279C103.613 103.466 103.886 102.778 104.433 102.217C104.98 101.647 105.642 101.363 106.418 101.363C107.335 101.363 108.033 101.729 108.514 102.46V101.507ZM106.54 106.264C107.102 106.264 107.571 106.075 107.948 105.698C108.325 105.314 108.514 104.841 108.514 104.279C108.514 103.717 108.325 103.248 107.948 102.871C107.571 102.486 107.102 102.294 106.54 102.294C105.986 102.294 105.52 102.486 105.143 102.871C104.766 103.248 104.577 103.717 104.577 104.279C104.577 104.841 104.766 105.314 105.143 105.698C105.52 106.075 105.986 106.264 106.54 106.264ZM114.81 101.507H115.842L113.579 107.395C113.343 108.023 113.01 108.5 112.581 108.825C112.16 109.158 111.672 109.306 111.118 109.269V108.371C111.798 108.423 112.297 108.046 112.615 107.24L112.715 107.029L110.297 101.507H111.328L113.214 105.854L114.81 101.507ZM119.907 100.498C119.723 100.498 119.567 100.435 119.442 100.309C119.316 100.184 119.253 100.032 119.253 99.8546C119.253 99.6772 119.316 99.5256 119.442 99.3999C119.567 99.2669 119.723 99.2003 119.907 99.2003C120.085 99.2003 120.236 99.2669 120.362 99.3999C120.488 99.5256 120.55 99.6772 120.55 99.8546C120.55 100.032 120.488 100.184 120.362 100.309C120.236 100.435 120.085 100.498 119.907 100.498ZM119.419 107.051V101.507H120.384V107.051H119.419ZM124.617 101.363C125.268 101.363 125.789 101.57 126.181 101.984C126.572 102.39 126.768 102.945 126.768 103.647V107.051H125.804V103.702C125.804 103.251 125.682 102.904 125.438 102.66C125.194 102.409 124.857 102.283 124.429 102.283C123.948 102.283 123.56 102.435 123.264 102.738C122.969 103.033 122.821 103.492 122.821 104.113V107.051H121.856V101.507H122.821V102.305C123.212 101.677 123.811 101.363 124.617 101.363ZM133.904 102.438H132.429V105.443C132.429 105.717 132.48 105.913 132.584 106.031C132.695 106.142 132.861 106.201 133.083 106.209C133.305 106.209 133.578 106.201 133.904 106.186V107.051C133.061 107.162 132.443 107.096 132.052 106.852C131.66 106.6 131.464 106.131 131.464 105.443V102.438H130.366V101.507H131.464V100.243L132.429 99.9544V101.507H133.904V102.438ZM139.444 106.353C138.874 106.915 138.183 107.195 137.37 107.195C136.557 107.195 135.866 106.915 135.296 106.353C134.735 105.791 134.454 105.1 134.454 104.279C134.454 103.458 134.735 102.767 135.296 102.205C135.866 101.644 136.557 101.363 137.37 101.363C138.183 101.363 138.874 101.644 139.444 102.205C140.013 102.767 140.297 103.458 140.297 104.279C140.297 105.1 140.013 105.791 139.444 106.353ZM137.37 106.253C137.924 106.253 138.39 106.064 138.767 105.687C139.144 105.31 139.333 104.841 139.333 104.279C139.333 103.717 139.144 103.248 138.767 102.871C138.39 102.494 137.924 102.305 137.37 102.305C136.823 102.305 136.361 102.494 135.984 102.871C135.607 103.248 135.418 103.717 135.418 104.279C135.418 104.841 135.607 105.31 135.984 105.687C136.361 106.064 136.823 106.253 137.37 106.253ZM145.26 101.507H146.225V107.051H145.26V106.253C144.869 106.881 144.27 107.195 143.464 107.195C142.813 107.195 142.292 106.992 141.901 106.586C141.509 106.172 141.313 105.613 141.313 104.911V101.507H142.278V104.856C142.278 105.307 142.4 105.658 142.643 105.909C142.887 106.153 143.224 106.275 143.653 106.275C144.133 106.275 144.521 106.127 144.817 105.831C145.113 105.528 145.26 105.066 145.26 104.445V101.507ZM150.3 107.195C149.464 107.195 148.77 106.918 148.215 106.364C147.661 105.802 147.383 105.107 147.383 104.279C147.383 103.451 147.661 102.76 148.215 102.205C148.77 101.644 149.464 101.363 150.3 101.363C150.847 101.363 151.338 101.496 151.775 101.762C152.211 102.021 152.536 102.372 152.75 102.815L151.941 103.281C151.801 102.985 151.582 102.749 151.287 102.571C150.998 102.394 150.669 102.305 150.3 102.305C149.745 102.305 149.28 102.494 148.903 102.871C148.533 103.248 148.348 103.717 148.348 104.279C148.348 104.833 148.533 105.299 148.903 105.676C149.28 106.053 149.745 106.242 150.3 106.242C150.669 106.242 151.002 106.157 151.298 105.987C151.594 105.809 151.819 105.573 151.974 105.277L152.795 105.754C152.558 106.19 152.218 106.541 151.775 106.807C151.331 107.066 150.839 107.195 150.3 107.195ZM156.508 101.363C157.159 101.363 157.68 101.57 158.072 101.984C158.464 102.39 158.66 102.945 158.66 103.647V107.051H157.695V103.702C157.695 103.251 157.573 102.904 157.329 102.66C157.085 102.409 156.749 102.283 156.32 102.283C155.839 102.283 155.451 102.435 155.156 102.738C154.86 103.033 154.712 103.492 154.712 104.113V107.051H153.747V99.289H154.712V102.305C155.104 101.677 155.703 101.363 156.508 101.363ZM169.31 101.507H170.319L168.6 107.051H167.613L166.316 102.948L165.019 107.051H164.032L162.313 101.507H163.322L164.542 105.721L165.85 101.507H166.782L168.09 105.732L169.31 101.507ZM171.8 100.498C171.615 100.498 171.46 100.435 171.334 100.309C171.208 100.184 171.146 100.032 171.146 99.8546C171.146 99.6772 171.208 99.5256 171.334 99.3999C171.46 99.2669 171.615 99.2003 171.8 99.2003C171.977 99.2003 172.129 99.2669 172.255 99.3999C172.38 99.5256 172.443 99.6772 172.443 99.8546C172.443 100.032 172.38 100.184 172.255 100.309C172.129 100.435 171.977 100.498 171.8 100.498ZM171.312 107.051V101.507H172.277V107.051H171.312ZM176.765 102.438H175.29V105.443C175.29 105.717 175.342 105.913 175.445 106.031C175.556 106.142 175.722 106.201 175.944 106.209C176.166 106.209 176.439 106.201 176.765 106.186V107.051C175.922 107.162 175.305 107.096 174.913 106.852C174.521 106.6 174.325 106.131 174.325 105.443V102.438H173.227V101.507H174.325V100.243L175.29 99.9544V101.507H176.765V102.438ZM180.668 101.363C181.319 101.363 181.84 101.57 182.231 101.984C182.623 102.39 182.819 102.945 182.819 103.647V107.051H181.854V103.702C181.854 103.251 181.732 102.904 181.489 102.66C181.245 102.409 180.908 102.283 180.479 102.283C179.999 102.283 179.611 102.435 179.315 102.738C179.019 103.033 178.872 103.492 178.872 104.113V107.051H177.907V99.289H178.872V102.305C179.263 101.677 179.862 101.363 180.668 101.363ZM189.999 101.363C190.775 101.363 191.437 101.647 191.984 102.217C192.531 102.778 192.804 103.466 192.804 104.279C192.804 105.092 192.531 105.783 191.984 106.353C191.437 106.915 190.775 107.195 189.999 107.195C189.082 107.195 188.383 106.829 187.903 106.098V109.269H186.938V101.507H187.903V102.46C188.383 101.729 189.082 101.363 189.999 101.363ZM189.877 106.264C190.431 106.264 190.897 106.075 191.274 105.698C191.651 105.314 191.84 104.841 191.84 104.279C191.84 103.717 191.651 103.248 191.274 102.871C190.897 102.486 190.431 102.294 189.877 102.294C189.315 102.294 188.846 102.486 188.468 102.871C188.091 103.248 187.903 103.717 187.903 104.279C187.903 104.841 188.091 105.314 188.468 105.698C188.846 106.075 189.315 106.264 189.877 106.264ZM194.632 104.723C194.728 105.218 194.953 105.602 195.308 105.876C195.67 106.149 196.114 106.286 196.639 106.286C197.371 106.286 197.903 106.016 198.236 105.477L199.056 105.942C198.517 106.778 197.703 107.195 196.617 107.195C195.737 107.195 195.02 106.922 194.465 106.375C193.918 105.82 193.645 105.122 193.645 104.279C193.645 103.444 193.915 102.749 194.454 102.194C194.994 101.64 195.693 101.363 196.55 101.363C197.363 101.363 198.025 101.651 198.535 102.228C199.053 102.797 199.311 103.484 199.311 104.29C199.311 104.431 199.3 104.575 199.278 104.723H194.632ZM196.55 102.272C196.033 102.272 195.604 102.42 195.264 102.716C194.924 103.004 194.713 103.392 194.632 103.88H198.336C198.254 103.355 198.047 102.956 197.715 102.682C197.382 102.409 196.994 102.272 196.55 102.272ZM205.089 106.353C204.52 106.915 203.829 107.195 203.015 107.195C202.202 107.195 201.511 106.915 200.942 106.353C200.38 105.791 200.099 105.1 200.099 104.279C200.099 103.458 200.38 102.767 200.942 102.205C201.511 101.644 202.202 101.363 203.015 101.363C203.829 101.363 204.52 101.644 205.089 102.205C205.658 102.767 205.943 103.458 205.943 104.279C205.943 105.1 205.658 105.791 205.089 106.353ZM203.015 106.253C203.57 106.253 204.036 106.064 204.413 105.687C204.79 105.31 204.978 104.841 204.978 104.279C204.978 103.717 204.79 103.248 204.413 102.871C204.036 102.494 203.57 102.305 203.015 102.305C202.468 102.305 202.006 102.494 201.629 102.871C201.252 103.248 201.064 103.717 201.064 104.279C201.064 104.841 201.252 105.31 201.629 105.687C202.006 106.064 202.468 106.253 203.015 106.253ZM210.141 101.363C210.917 101.363 211.579 101.647 212.126 102.217C212.673 102.778 212.946 103.466 212.946 104.279C212.946 105.092 212.673 105.783 212.126 106.353C211.579 106.915 210.917 107.195 210.141 107.195C209.224 107.195 208.525 106.829 208.045 106.098V109.269H207.08V101.507H208.045V102.46C208.525 101.729 209.224 101.363 210.141 101.363ZM210.019 106.264C210.573 106.264 211.039 106.075 211.416 105.698C211.793 105.314 211.981 104.841 211.981 104.279C211.981 103.717 211.793 103.248 211.416 102.871C211.039 102.486 210.573 102.294 210.019 102.294C209.457 102.294 208.987 102.486 208.61 102.871C208.233 103.248 208.045 103.717 208.045 104.279C208.045 104.841 208.233 105.314 208.61 105.698C208.987 106.075 209.457 106.264 210.019 106.264ZM214.097 107.051V98.9564H215.062V107.051H214.097ZM217.21 104.723C217.306 105.218 217.532 105.602 217.887 105.876C218.249 106.149 218.692 106.286 219.217 106.286C219.949 106.286 220.481 106.016 220.814 105.477L221.635 105.942C221.095 106.778 220.282 107.195 219.195 107.195C218.315 107.195 217.598 106.922 217.044 106.375C216.497 105.82 216.223 105.122 216.223 104.279C216.223 103.444 216.493 102.749 217.033 102.194C217.572 101.64 218.271 101.363 219.129 101.363C219.942 101.363 220.603 101.651 221.114 102.228C221.631 102.797 221.89 103.484 221.89 104.29C221.89 104.431 221.879 104.575 221.857 104.723H217.21ZM219.129 102.272C218.611 102.272 218.182 102.42 217.842 102.716C217.502 103.004 217.292 103.392 217.21 103.88H220.914C220.833 103.355 220.626 102.956 220.293 102.682C219.96 102.409 219.572 102.272 219.129 102.272ZM232.302 101.507H233.311L231.593 107.051H230.606L229.308 102.948L228.011 107.051H227.024L225.305 101.507H226.314L227.534 105.721L228.843 101.507H229.774L231.083 105.732L232.302 101.507ZM237.065 101.363C237.716 101.363 238.237 101.57 238.629 101.984C239.021 102.39 239.217 102.945 239.217 103.647V107.051H238.252V103.702C238.252 103.251 238.13 102.904 237.886 102.66C237.642 102.409 237.306 102.283 236.877 102.283C236.396 102.283 236.008 102.435 235.713 102.738C235.417 103.033 235.269 103.492 235.269 104.113V107.051H234.304V99.289H235.269V102.305C235.661 101.677 236.26 101.363 237.065 101.363ZM245.243 106.353C244.674 106.915 243.982 107.195 243.169 107.195C242.356 107.195 241.665 106.915 241.096 106.353C240.534 105.791 240.253 105.1 240.253 104.279C240.253 103.458 240.534 102.767 241.096 102.205C241.665 101.644 242.356 101.363 243.169 101.363C243.982 101.363 244.674 101.644 245.243 102.205C245.812 102.767 246.097 103.458 246.097 104.279C246.097 105.1 245.812 105.791 245.243 106.353ZM243.169 106.253C243.724 106.253 244.189 106.064 244.566 105.687C244.943 105.31 245.132 104.841 245.132 104.279C245.132 103.717 244.943 103.248 244.566 102.871C244.189 102.494 243.724 102.305 243.169 102.305C242.622 102.305 242.16 102.494 241.783 102.871C241.406 103.248 241.218 103.717 241.218 104.279C241.218 104.841 241.406 105.31 241.783 105.687C242.16 106.064 242.622 106.253 243.169 106.253ZM255.994 101.363C256.615 101.363 257.118 101.566 257.502 101.973C257.887 102.372 258.079 102.915 258.079 103.603V107.051H257.114V103.636C257.114 103.207 257.003 102.874 256.782 102.638C256.56 102.401 256.264 102.283 255.894 102.283C255.48 102.283 255.148 102.424 254.896 102.704C254.653 102.978 254.531 103.399 254.531 103.969V107.051H253.566V103.636C253.566 103.207 253.459 102.874 253.244 102.638C253.037 102.401 252.753 102.283 252.39 102.283C251.984 102.283 251.644 102.424 251.37 102.704C251.104 102.985 250.971 103.407 250.971 103.969V107.051H250.006V101.507H250.971V102.25C251.348 101.658 251.899 101.363 252.623 101.363C253.37 101.363 253.913 101.677 254.253 102.305C254.638 101.677 255.218 101.363 255.994 101.363ZM264.007 101.507H264.972V107.051H264.007V106.098C263.527 106.829 262.828 107.195 261.912 107.195C261.135 107.195 260.474 106.915 259.927 106.353C259.38 105.783 259.106 105.092 259.106 104.279C259.106 103.466 259.38 102.778 259.927 102.217C260.474 101.647 261.135 101.363 261.912 101.363C262.828 101.363 263.527 101.729 264.007 102.46V101.507ZM262.034 106.264C262.595 106.264 263.065 106.075 263.442 105.698C263.819 105.314 264.007 104.841 264.007 104.279C264.007 103.717 263.819 103.248 263.442 102.871C263.065 102.486 262.595 102.294 262.034 102.294C261.479 102.294 261.013 102.486 260.636 102.871C260.259 103.248 260.071 103.717 260.071 104.279C260.071 104.841 260.259 105.314 260.636 105.698C261.013 106.075 261.479 106.264 262.034 106.264ZM269.45 102.438H267.975V105.443C267.975 105.717 268.027 105.913 268.13 106.031C268.241 106.142 268.408 106.201 268.629 106.209C268.851 106.209 269.125 106.201 269.45 106.186V107.051C268.607 107.162 267.99 107.096 267.598 106.852C267.206 106.6 267.01 106.131 267.01 105.443V102.438H265.913V101.507H267.01V100.243L267.975 99.9544V101.507H269.45V102.438ZM273.316 102.438H271.841V105.443C271.841 105.717 271.893 105.913 271.996 106.031C272.107 106.142 272.274 106.201 272.495 106.209C272.717 106.209 272.991 106.201 273.316 106.186V107.051C272.473 107.162 271.856 107.096 271.464 106.852C271.072 106.6 270.876 106.131 270.876 105.443V102.438H269.779V101.507H270.876V100.243L271.841 99.9544V101.507H273.316V102.438ZM274.853 104.723C274.949 105.218 275.175 105.602 275.529 105.876C275.892 106.149 276.335 106.286 276.86 106.286C277.592 106.286 278.124 106.016 278.457 105.477L279.277 105.942C278.738 106.778 277.925 107.195 276.838 107.195C275.958 107.195 275.241 106.922 274.687 106.375C274.14 105.82 273.866 105.122 273.866 104.279C273.866 103.444 274.136 102.749 274.676 102.194C275.215 101.64 275.914 101.363 276.771 101.363C277.585 101.363 278.246 101.651 278.756 102.228C279.274 102.797 279.533 103.484 279.533 104.29C279.533 104.431 279.521 104.575 279.499 104.723H274.853ZM276.771 102.272C276.254 102.272 275.825 102.42 275.485 102.716C275.145 103.004 274.934 103.392 274.853 103.88H278.557C278.475 103.355 278.268 102.956 277.936 102.682C277.603 102.409 277.215 102.272 276.771 102.272ZM281.606 102.438C281.924 101.751 282.501 101.407 283.336 101.407V102.416C282.863 102.394 282.456 102.52 282.116 102.793C281.776 103.067 281.606 103.507 281.606 104.113V107.051H280.641V101.507H281.606V102.438ZM284.906 103.004C284.906 103.218 285.013 103.392 285.228 103.525C285.442 103.651 285.701 103.754 286.004 103.835C286.307 103.909 286.61 103.998 286.913 104.102C287.216 104.198 287.475 104.368 287.689 104.612C287.904 104.848 288.011 105.155 288.011 105.532C288.011 106.035 287.815 106.438 287.423 106.741C287.039 107.044 286.543 107.195 285.937 107.195C285.398 107.195 284.936 107.077 284.551 106.841C284.167 106.604 283.893 106.29 283.731 105.898L284.562 105.421C284.651 105.687 284.817 105.898 285.061 106.053C285.305 106.209 285.597 106.286 285.937 106.286C286.255 106.286 286.518 106.227 286.725 106.109C286.932 105.983 287.035 105.791 287.035 105.532C287.035 105.318 286.928 105.148 286.713 105.022C286.499 104.889 286.24 104.785 285.937 104.712C285.634 104.63 285.331 104.538 285.028 104.434C284.725 104.331 284.466 104.161 284.252 103.924C284.037 103.688 283.93 103.385 283.93 103.015C283.93 102.534 284.115 102.139 284.485 101.828C284.862 101.518 285.331 101.363 285.893 101.363C286.344 101.363 286.743 101.466 287.09 101.673C287.445 101.873 287.711 102.154 287.889 102.516L287.079 102.971C286.88 102.497 286.484 102.261 285.893 102.261C285.619 102.261 285.386 102.327 285.194 102.46C285.002 102.586 284.906 102.767 284.906 103.004ZM294.941 102.438H293.467V105.443C293.467 105.717 293.518 105.913 293.622 106.031C293.733 106.142 293.899 106.201 294.121 106.209C294.343 106.209 294.616 106.201 294.941 106.186V107.051C294.099 107.162 293.481 107.096 293.09 106.852C292.698 106.6 292.502 106.131 292.502 105.443V102.438H291.404V101.507H292.502V100.243L293.467 99.9544V101.507H294.941V102.438ZM300.482 106.353C299.912 106.915 299.221 107.195 298.408 107.195C297.595 107.195 296.904 106.915 296.334 106.353C295.773 105.791 295.492 105.1 295.492 104.279C295.492 103.458 295.773 102.767 296.334 102.205C296.904 101.644 297.595 101.363 298.408 101.363C299.221 101.363 299.912 101.644 300.482 102.205C301.051 102.767 301.335 103.458 301.335 104.279C301.335 105.1 301.051 105.791 300.482 106.353ZM298.408 106.253C298.962 106.253 299.428 106.064 299.805 105.687C300.182 105.31 300.371 104.841 300.371 104.279C300.371 103.717 300.182 103.248 299.805 102.871C299.428 102.494 298.962 102.305 298.408 102.305C297.861 102.305 297.399 102.494 297.022 102.871C296.645 103.248 296.456 103.717 296.456 104.279C296.456 104.841 296.645 105.31 297.022 105.687C297.399 106.064 297.861 106.253 298.408 106.253ZM309.115 101.507H310.146L307.884 107.395C307.648 108.023 307.315 108.5 306.886 108.825C306.465 109.158 305.977 109.306 305.422 109.269V108.371C306.102 108.423 306.601 108.046 306.919 107.24L307.019 107.029L304.602 101.507H305.633L307.518 105.854L309.115 101.507ZM315.415 106.353C314.846 106.915 314.154 107.195 313.341 107.195C312.528 107.195 311.837 106.915 311.268 106.353C310.706 105.791 310.425 105.1 310.425 104.279C310.425 103.458 310.706 102.767 311.268 102.205C311.837 101.644 312.528 101.363 313.341 101.363C314.154 101.363 314.846 101.644 315.415 102.205C315.984 102.767 316.269 103.458 316.269 104.279C316.269 105.1 315.984 105.791 315.415 106.353ZM313.341 106.253C313.896 106.253 314.361 106.064 314.738 105.687C315.115 105.31 315.304 104.841 315.304 104.279C315.304 103.717 315.115 103.248 314.738 102.871C314.361 102.494 313.896 102.305 313.341 102.305C312.794 102.305 312.332 102.494 311.955 102.871C311.578 103.248 311.389 103.717 311.389 104.279C311.389 104.841 311.578 105.31 311.955 105.687C312.332 106.064 312.794 106.253 313.341 106.253ZM321.232 101.507H322.196V107.051H321.232V106.253C320.84 106.881 320.241 107.195 319.435 107.195C318.785 107.195 318.263 106.992 317.872 106.586C317.48 106.172 317.284 105.613 317.284 104.911V101.507H318.249V104.856C318.249 105.307 318.371 105.658 318.615 105.909C318.859 106.153 319.195 106.275 319.624 106.275C320.104 106.275 320.492 106.127 320.788 105.831C321.084 105.528 321.232 105.066 321.232 104.445V101.507ZM329.453 102.438H327.979V105.443C327.979 105.717 328.03 105.913 328.134 106.031C328.245 106.142 328.411 106.201 328.633 106.209C328.855 106.209 329.128 106.201 329.453 106.186V107.051C328.611 107.162 327.993 107.096 327.602 106.852C327.21 106.6 327.014 106.131 327.014 105.443V102.438H325.916V101.507H327.014V100.243L327.979 99.9544V101.507H329.453V102.438ZM333.357 101.363C334.007 101.363 334.528 101.57 334.92 101.984C335.312 102.39 335.508 102.945 335.508 103.647V107.051H334.543V103.702C334.543 103.251 334.421 102.904 334.177 102.66C333.933 102.409 333.597 102.283 333.168 102.283C332.688 102.283 332.3 102.435 332.004 102.738C331.708 103.033 331.56 103.492 331.56 104.113V107.051H330.596V99.289H331.56V102.305C331.952 101.677 332.551 101.363 333.357 101.363ZM337.531 104.723C337.627 105.218 337.853 105.602 338.208 105.876C338.57 106.149 339.013 106.286 339.538 106.286C340.27 106.286 340.802 106.016 341.135 105.477L341.956 105.942C341.416 106.778 340.603 107.195 339.516 107.195C338.636 107.195 337.919 106.922 337.365 106.375C336.818 105.82 336.544 105.122 336.544 104.279C336.544 103.444 336.814 102.749 337.354 102.194C337.893 101.64 338.592 101.363 339.45 101.363C340.263 101.363 340.924 101.651 341.435 102.228C341.952 102.797 342.211 103.484 342.211 104.29C342.211 104.431 342.2 104.575 342.177 104.723H337.531ZM339.45 102.272C338.932 102.272 338.503 102.42 338.163 102.716C337.823 103.004 337.613 103.392 337.531 103.88H341.235C341.154 103.355 340.947 102.956 340.614 102.682C340.281 102.409 339.893 102.272 339.45 102.272ZM352.08 101.363C352.701 101.363 353.204 101.566 353.588 101.973C353.972 102.372 354.165 102.915 354.165 103.603V107.051H353.2V103.636C353.2 103.207 353.089 102.874 352.867 102.638C352.645 102.401 352.35 102.283 351.98 102.283C351.566 102.283 351.233 102.424 350.982 102.704C350.738 102.978 350.616 103.399 350.616 103.969V107.051H349.651V103.636C349.651 103.207 349.544 102.874 349.33 102.638C349.123 102.401 348.838 102.283 348.476 102.283C348.069 102.283 347.729 102.424 347.456 102.704C347.19 102.985 347.057 103.407 347.057 103.969V107.051H346.092V101.507H347.057V102.25C347.434 101.658 347.984 101.363 348.709 101.363C349.456 101.363 349.999 101.677 350.339 102.305C350.723 101.677 351.304 101.363 352.08 101.363ZM360.182 106.353C359.613 106.915 358.921 107.195 358.108 107.195C357.295 107.195 356.604 106.915 356.035 106.353C355.473 105.791 355.192 105.1 355.192 104.279C355.192 103.458 355.473 102.767 356.035 102.205C356.604 101.644 357.295 101.363 358.108 101.363C358.921 101.363 359.613 101.644 360.182 102.205C360.751 102.767 361.036 103.458 361.036 104.279C361.036 105.1 360.751 105.791 360.182 106.353ZM358.108 106.253C358.663 106.253 359.128 106.064 359.505 105.687C359.882 105.31 360.071 104.841 360.071 104.279C360.071 103.717 359.882 103.248 359.505 102.871C359.128 102.494 358.663 102.305 358.108 102.305C357.561 102.305 357.099 102.494 356.722 102.871C356.345 103.248 356.157 103.717 356.157 104.279C356.157 104.841 356.345 105.31 356.722 105.687C357.099 106.064 357.561 106.253 358.108 106.253ZM362.886 103.004C362.886 103.218 362.993 103.392 363.207 103.525C363.421 103.651 363.68 103.754 363.983 103.835C364.286 103.909 364.59 103.998 364.893 104.102C365.196 104.198 365.454 104.368 365.669 104.612C365.883 104.848 365.99 105.155 365.99 105.532C365.99 106.035 365.795 106.438 365.403 106.741C365.018 107.044 364.523 107.195 363.917 107.195C363.377 107.195 362.915 107.077 362.531 106.841C362.146 106.604 361.873 106.29 361.71 105.898L362.542 105.421C362.63 105.687 362.797 105.898 363.041 106.053C363.285 106.209 363.577 106.286 363.917 106.286C364.235 106.286 364.497 106.227 364.704 106.109C364.911 105.983 365.015 105.791 365.015 105.532C365.015 105.318 364.907 105.148 364.693 105.022C364.479 104.889 364.22 104.785 363.917 104.712C363.614 104.63 363.311 104.538 363.008 104.434C362.704 104.331 362.446 104.161 362.231 103.924C362.017 103.688 361.91 103.385 361.91 103.015C361.91 102.534 362.095 102.139 362.464 101.828C362.841 101.518 363.311 101.363 363.872 101.363C364.323 101.363 364.723 101.466 365.07 101.673C365.425 101.873 365.691 102.154 365.868 102.516L365.059 102.971C364.859 102.497 364.464 102.261 363.872 102.261C363.599 102.261 363.366 102.327 363.174 102.46C362.982 102.586 362.886 102.767 362.886 103.004ZM369.932 102.438H368.457V105.443C368.457 105.717 368.509 105.913 368.613 106.031C368.724 106.142 368.89 106.201 369.112 106.209C369.333 106.209 369.607 106.201 369.932 106.186V107.051C369.089 107.162 368.472 107.096 368.08 106.852C367.689 106.6 367.493 106.131 367.493 105.443V102.438H366.395V101.507H367.493V100.243L368.457 99.9544V101.507H369.932V102.438ZM371.717 107.173C371.517 107.173 371.347 107.103 371.207 106.963C371.066 106.822 370.996 106.652 370.996 106.452C370.996 106.253 371.066 106.083 371.207 105.942C371.347 105.802 371.517 105.732 371.717 105.732C371.924 105.732 372.094 105.802 372.227 105.942C372.367 106.083 372.438 106.253 372.438 106.452C372.438 106.652 372.367 106.822 372.227 106.963C372.094 107.103 371.924 107.173 371.717 107.173Z" fill="white"/>
<path d="M65.5943 47.666H67.826V61.2499H65.5943V55.37H59.7726V61.2499H57.541V47.666H59.7726V53.2354H65.5943V47.666ZM72.3847 49.7036C72.126 49.9623 71.8155 50.0917 71.4533 50.0917C71.091 50.0917 70.7741 49.9623 70.5024 49.7036C70.2437 49.4319 70.1143 49.1149 70.1143 48.7527C70.1143 48.3905 70.2437 48.08 70.5024 47.8212C70.7611 47.5496 71.0781 47.4137 71.4533 47.4137C71.8284 47.4137 72.1454 47.5496 72.4041 47.8212C72.6629 48.08 72.7923 48.3905 72.7923 48.7527C72.7923 49.1149 72.6564 49.4319 72.3847 49.7036ZM70.4054 61.2499V51.5471H72.5012V61.2499H70.4054ZM87.6646 61.2499L84.7926 56.3015H82.1535V61.2499H79.9218V47.666H85.3554C86.5715 47.666 87.6 48.0929 88.4409 48.9468C89.2947 49.7877 89.7216 50.8162 89.7216 52.0322C89.7216 52.899 89.4694 53.6946 88.9648 54.4191C88.4732 55.1307 87.8264 55.6481 87.0243 55.9716L90.1097 61.2499H87.6646ZM82.1535 49.7618V54.3027H85.3554C85.9505 54.3027 86.455 54.0828 86.869 53.6429C87.283 53.203 87.49 52.6662 87.49 52.0322C87.49 51.3983 87.283 50.8614 86.869 50.4216C86.455 49.9817 85.9505 49.7618 85.3554 49.7618H82.1535ZM95.7551 61.5022C94.332 61.5022 93.1224 61.0105 92.1263 60.0273C91.1301 59.0441 90.632 57.8345 90.632 56.3985C90.632 54.9625 91.1301 53.7529 92.1263 52.7696C93.1224 51.7864 94.332 51.2948 95.7551 51.2948C97.1911 51.2948 98.4007 51.7864 99.3839 52.7696C100.38 53.7529 100.878 54.9625 100.878 56.3985C100.878 57.8345 100.38 59.0441 99.3839 60.0273C98.4007 61.0105 97.1911 61.5022 95.7551 61.5022ZM93.6011 58.5913C94.1832 59.1735 94.9012 59.4646 95.7551 59.4646C96.6089 59.4646 97.3269 59.1735 97.9091 58.5913C98.4913 58.0091 98.7824 57.2782 98.7824 56.3985C98.7824 55.5188 98.4913 54.7878 97.9091 54.2057C97.3269 53.6235 96.6089 53.3324 95.7551 53.3324C94.9012 53.3324 94.1832 53.6235 93.6011 54.2057C93.0189 54.7878 92.7278 55.5188 92.7278 56.3985C92.7278 57.2782 93.0189 58.0091 93.6011 58.5913ZM107.877 51.2948C108.989 51.2948 109.889 51.6506 110.574 52.3621C111.26 53.0737 111.603 54.0504 111.603 55.2924V61.2499H109.507V55.5058C109.507 54.7814 109.313 54.2251 108.925 53.837C108.537 53.4488 108.006 53.2548 107.334 53.2548C106.596 53.2548 106.001 53.4877 105.548 53.9534C105.095 54.4062 104.869 55.1048 104.869 56.0492V61.2499H102.773V47.666H104.869V52.7891C105.503 51.7929 106.506 51.2948 107.877 51.2948ZM121.544 51.5471H123.64V61.2499H121.544V59.8527C120.755 60.9523 119.623 61.5022 118.148 61.5022C116.816 61.5022 115.677 61.0105 114.733 60.0273C113.788 59.0312 113.316 57.8216 113.316 56.3985C113.316 54.9625 113.788 53.7529 114.733 52.7696C115.677 51.7864 116.816 51.2948 118.148 51.2948C119.623 51.2948 120.755 51.8382 121.544 52.9249V51.5471ZM116.285 58.6301C116.867 59.2123 117.598 59.5034 118.478 59.5034C119.358 59.5034 120.089 59.2123 120.671 58.6301C121.253 58.035 121.544 57.2911 121.544 56.3985C121.544 55.5058 121.253 54.7684 120.671 54.1863C120.089 53.5912 119.358 53.2936 118.478 53.2936C117.598 53.2936 116.867 53.5912 116.285 54.1863C115.703 54.7684 115.412 55.5058 115.412 56.3985C115.412 57.2911 115.703 58.035 116.285 58.6301ZM131.186 51.2948C132.299 51.2948 133.198 51.6506 133.884 52.3621C134.569 53.0737 134.912 54.0504 134.912 55.2924V61.2499H132.816V55.5058C132.816 54.7814 132.622 54.2251 132.234 53.837C131.846 53.4488 131.316 53.2548 130.643 53.2548C129.906 53.2548 129.31 53.4877 128.858 53.9534C128.405 54.4062 128.178 55.1048 128.178 56.0492V61.2499H126.083V51.5471H128.178V52.7891C128.812 51.7929 129.815 51.2948 131.186 51.2948ZM140.08 58.9212L138.721 63.9667H136.975L137.751 58.9212H140.08Z" fill="white"/>
<g opacity="0.8" clip-path="url(#clip0)">
<path d="M601.296 39.091L603.511 36.8754C603.713 36.674 603.713 36.3426 603.511 36.1412C603.31 35.9398 602.979 35.9398 602.777 36.1412L600.562 38.3568L598.346 36.1412C598.144 35.9398 597.813 35.9398 597.612 36.1412C597.511 36.2419 597.459 36.3751 597.459 36.5083C597.459 36.6415 597.511 36.7747 597.612 36.8754L599.827 39.091L597.612 41.3066C597.511 41.4073 597.459 41.5405 597.459 41.6737C597.459 41.8069 597.511 41.9401 597.612 42.0408C597.813 42.2422 598.144 42.2422 598.346 42.0408L600.562 39.8252L602.777 42.0408C602.979 42.2422 603.31 42.2422 603.511 42.0408C603.713 41.8394 603.713 41.508 603.511 41.3066L601.296 39.091Z" fill="white"/>
</g>
<defs>
<filter id="filter0_d" x="0.737432" y="0.280476" width="650.779" height="182.967" filterUnits="userSpaceOnUse" color-interpolation-filters="sRGB">
<feFlood flood-opacity="0" result="BackgroundImageFix"/>
<feColorMatrix in="SourceAlpha" type="matrix" values="0 0 0 0 0 0 0 0 0 0 0 0 0 0 0 0 0 0 127 0"/>
<feOffset dy="6.93056"/>
<feGaussianBlur stdDeviation="13.8611"/>
<feColorMatrix type="matrix" values="0 0 0 0 0 0 0 0 0 0 0 0 0 0 0 0 0 0 0.05 0"/>
<feBlend mode="normal" in2="BackgroundImageFix" result="effect1_dropShadow"/>
<feBlend mode="normal" in="SourceGraphic" in2="effect1_dropShadow" result="shape"/>
</filter>
<clipPath id="clip0">
<rect width="16.6333" height="16.6333" fill="white" transform="translate(587.063 30.7749)"/>
</clipPath>
</defs>
</svg>
