<svg width="50" height="50" viewBox="0 0 24 27" fill="none" xmlns="http://www.w3.org/2000/svg">
<mask id="path-1-outside-1" maskUnits="userSpaceOnUse" x="-0.323669" y="-0.242065" width="24" height="27" fill="black">
<rect fill="white" x="-0.323669" y="-0.242065" width="24" height="27"/>
<path fill-rule="evenodd" clip-rule="evenodd" d="M12.7733 5.79856C12.7733 8.57794 15.0345 10.839 17.8139 10.839C20.5933 10.839 22.8544 8.57794 22.8544 5.79856C22.8544 3.01917 20.5933 0.757935 17.8139 0.757935C15.0345 0.757935 12.7733 3.01917 12.7733 5.79856ZM14.2855 5.79856C14.2855 3.85278 15.8682 2.2701 17.8139 2.2701C19.7595 2.2701 21.3422 3.85278 21.3422 5.79856C21.3422 7.74414 19.7595 9.32683 17.8139 9.32683C15.8682 9.32683 14.2855 7.74414 14.2855 5.79856ZM19.0743 21.9282H14.5226C14.5325 21.977 14.5377 22.0275 14.5377 22.0793C14.5377 24.164 12.8411 25.8597 10.7573 25.8597C8.67359 25.8597 6.97684 24.164 6.97684 22.0793C6.97684 22.0275 6.98204 21.977 6.99195 21.9282H2.44047C1.46767 21.9282 0.676331 21.1369 0.676331 20.1641C0.676331 19.6478 0.901162 19.159 1.29323 18.8232C1.31852 18.801 1.34566 18.7809 1.3739 18.7626C2.85376 17.4712 3.70067 15.6133 3.70067 13.6515V10.8389C3.70067 6.94772 6.86714 3.78218 10.7574 3.78218C10.9187 3.78218 11.0932 3.78513 11.2545 3.81245C11.6667 3.88093 11.945 4.27116 11.8764 4.68243C11.8079 5.09369 11.4107 5.37206 11.0064 5.30339C10.941 5.29276 10.8703 5.29342 10.8034 5.29405L10.7574 5.29434C7.70093 5.29434 5.21284 7.78134 5.21284 10.8389V13.6515C5.21284 16.0872 4.14516 18.3918 2.28633 19.9734L2.27854 19.9797L2.27852 19.9797C2.2665 19.9894 2.25524 19.9986 2.24185 20.0077C2.21471 20.042 2.1885 20.0945 2.1885 20.1641C2.1885 20.301 2.3035 20.416 2.44047 20.416H19.0743C19.2115 20.416 19.3265 20.301 19.3265 20.1641C19.3265 20.0934 19.3003 20.042 19.272 20.0077C19.2606 19.9994 19.2504 19.991 19.2396 19.9822C19.236 19.9793 19.2324 19.9764 19.2286 19.9734C17.3687 18.3907 16.3021 16.0872 16.3021 13.6515V12.5528C16.3021 12.1355 16.6409 11.7967 17.0582 11.7967C17.4756 11.7967 17.8143 12.1355 17.8143 12.5528V13.6515C17.8143 15.6144 18.6621 17.4733 20.144 18.7658C20.1712 18.7839 20.1974 18.8031 20.2215 18.8243C20.6138 19.159 20.8386 19.6478 20.8386 20.1641C20.8386 21.1369 20.0473 21.9282 19.0743 21.9282ZM8.47389 21.9282H13.0406C13.0307 21.977 13.0255 22.0275 13.0255 22.0793C13.0255 23.3304 12.0073 24.3475 10.7573 24.3475C9.50721 24.3475 8.489 23.3304 8.489 22.0793C8.489 22.0275 8.4838 21.977 8.47389 21.9282Z"/>
</mask>
<path fill-rule="evenodd" clip-rule="evenodd" d="M12.7733 5.79856C12.7733 8.57794 15.0345 10.839 17.8139 10.839C20.5933 10.839 22.8544 8.57794 22.8544 5.79856C22.8544 3.01917 20.5933 0.757935 17.8139 0.757935C15.0345 0.757935 12.7733 3.01917 12.7733 5.79856ZM14.2855 5.79856C14.2855 3.85278 15.8682 2.2701 17.8139 2.2701C19.7595 2.2701 21.3422 3.85278 21.3422 5.79856C21.3422 7.74414 19.7595 9.32683 17.8139 9.32683C15.8682 9.32683 14.2855 7.74414 14.2855 5.79856ZM19.0743 21.9282H14.5226C14.5325 21.977 14.5377 22.0275 14.5377 22.0793C14.5377 24.164 12.8411 25.8597 10.7573 25.8597C8.67359 25.8597 6.97684 24.164 6.97684 22.0793C6.97684 22.0275 6.98204 21.977 6.99195 21.9282H2.44047C1.46767 21.9282 0.676331 21.1369 0.676331 20.1641C0.676331 19.6478 0.901162 19.159 1.29323 18.8232C1.31852 18.801 1.34566 18.7809 1.3739 18.7626C2.85376 17.4712 3.70067 15.6133 3.70067 13.6515V10.8389C3.70067 6.94772 6.86714 3.78218 10.7574 3.78218C10.9187 3.78218 11.0932 3.78513 11.2545 3.81245C11.6667 3.88093 11.945 4.27116 11.8764 4.68243C11.8079 5.09369 11.4107 5.37206 11.0064 5.30339C10.941 5.29276 10.8703 5.29342 10.8034 5.29405L10.7574 5.29434C7.70093 5.29434 5.21284 7.78134 5.21284 10.8389V13.6515C5.21284 16.0872 4.14516 18.3918 2.28633 19.9734L2.27854 19.9797L2.27852 19.9797C2.2665 19.9894 2.25524 19.9986 2.24185 20.0077C2.21471 20.042 2.1885 20.0945 2.1885 20.1641C2.1885 20.301 2.3035 20.416 2.44047 20.416H19.0743C19.2115 20.416 19.3265 20.301 19.3265 20.1641C19.3265 20.0934 19.3003 20.042 19.272 20.0077C19.2606 19.9994 19.2504 19.991 19.2396 19.9822C19.236 19.9793 19.2324 19.9764 19.2286 19.9734C17.3687 18.3907 16.3021 16.0872 16.3021 13.6515V12.5528C16.3021 12.1355 16.6409 11.7967 17.0582 11.7967C17.4756 11.7967 17.8143 12.1355 17.8143 12.5528V13.6515C17.8143 15.6144 18.6621 17.4733 20.144 18.7658C20.1712 18.7839 20.1974 18.8031 20.2215 18.8243C20.6138 19.159 20.8386 19.6478 20.8386 20.1641C20.8386 21.1369 20.0473 21.9282 19.0743 21.9282ZM8.47389 21.9282H13.0406C13.0307 21.977 13.0255 22.0275 13.0255 22.0793C13.0255 23.3304 12.0073 24.3475 10.7573 24.3475C9.50721 24.3475 8.489 23.3304 8.489 22.0793C8.489 22.0275 8.4838 21.977 8.47389 21.9282Z" fill="#26C296"/>
<path d="M14.5226 21.9282V21.5266H14.0312L14.129 22.0081L14.5226 21.9282ZM6.99195 21.9282L7.38555 22.0081L7.48332 21.5266H6.99195V21.9282ZM1.29323 18.8232L1.5545 19.1283L1.55786 19.1253L1.29323 18.8232ZM1.3739 18.7626L1.59208 19.0998L1.61627 19.0842L1.63797 19.0653L1.3739 18.7626ZM11.2545 3.81245L11.1874 4.20845L11.1887 4.20865L11.2545 3.81245ZM11.8764 4.68243L11.4802 4.61628L11.4802 4.61646L11.8764 4.68243ZM11.0064 5.30339L11.0737 4.90742L11.0708 4.90696L11.0064 5.30339ZM10.8034 5.29405L10.8059 5.69568L10.8072 5.69567L10.8034 5.29405ZM10.7574 5.29434V5.69598L10.7599 5.69597L10.7574 5.29434ZM2.28633 19.9734L2.53897 20.2858L2.5466 20.2793L2.28633 19.9734ZM2.27854 19.9797L2.02597 19.6674L2.01112 19.6794L1.99748 19.6928L2.27854 19.9797ZM2.27852 19.9797L2.53145 20.2917L2.5461 20.2798L2.55957 20.2666L2.27852 19.9797ZM2.24185 20.0077L2.01556 19.6759L1.96482 19.7105L1.92675 19.7587L2.24185 20.0077ZM19.272 20.0077L19.5822 19.7526L19.55 19.7135L19.5092 19.6836L19.272 20.0077ZM19.2396 19.9822L18.986 20.2937L18.9861 20.2938L19.2396 19.9822ZM19.2286 19.9734L18.9683 20.2794L18.9768 20.2862L19.2286 19.9734ZM20.144 18.7658L19.88 19.0685L19.8996 19.0855L19.9212 19.1L20.144 18.7658ZM20.2215 18.8243L19.9566 19.1262L19.9609 19.1298L20.2215 18.8243ZM13.0406 21.9282L13.4342 22.0081L13.532 21.5266H13.0406V21.9282ZM8.47389 21.9282V21.5266H7.98252L8.08029 22.0081L8.47389 21.9282ZM17.8139 10.4374C15.2563 10.4374 13.1749 8.35611 13.1749 5.79856H12.3717C12.3717 8.79978 14.8127 11.2406 17.8139 11.2406V10.4374ZM22.4527 5.79856C22.4527 8.35613 20.3715 10.4374 17.8139 10.4374V11.2406C20.8151 11.2406 23.256 8.79976 23.256 5.79856H22.4527ZM17.8139 1.15957C20.3715 1.15957 22.4527 3.24097 22.4527 5.79856H23.256C23.256 2.79738 20.8151 0.356303 17.8139 0.356303V1.15957ZM13.1749 5.79856C13.1749 3.24099 15.2564 1.15957 17.8139 1.15957V0.356303C14.8127 0.356303 12.3717 2.79736 12.3717 5.79856H13.1749ZM17.8139 1.86847C15.6463 1.86847 13.8838 3.63097 13.8838 5.79856H14.6871C14.6871 4.0746 16.09 2.67173 17.8139 2.67173V1.86847ZM21.7438 5.79856C21.7438 3.63098 19.9813 1.86847 17.8139 1.86847V2.67173C19.5377 2.67173 20.9406 4.07459 20.9406 5.79856H21.7438ZM17.8139 9.72846C19.9813 9.72846 21.7438 7.96596 21.7438 5.79856H20.9406C20.9406 7.52233 19.5377 8.92519 17.8139 8.92519V9.72846ZM13.8838 5.79856C13.8838 7.96597 15.6463 9.72846 17.8139 9.72846V8.92519C16.09 8.92519 14.6871 7.52232 14.6871 5.79856H13.8838ZM14.5226 22.3298H19.0743V21.5266H14.5226V22.3298ZM14.9393 22.0793C14.9393 22.0005 14.9314 21.9232 14.9162 21.8483L14.129 22.0081C14.1336 22.0308 14.136 22.0545 14.136 22.0793H14.9393ZM10.7573 26.2613C13.0629 26.2613 14.9393 24.3859 14.9393 22.0793H14.136C14.136 23.9422 12.6194 25.458 10.7573 25.458V26.2613ZM6.5752 22.0793C6.5752 24.3859 8.45186 26.2613 10.7573 26.2613V25.458C8.89533 25.458 7.37847 23.9421 7.37847 22.0793H6.5752ZM6.59835 21.8483C6.58313 21.9232 6.5752 22.0005 6.5752 22.0793H7.37847C7.37847 22.0545 7.38095 22.0308 7.38555 22.0081L6.59835 21.8483ZM2.44047 22.3298H6.99195V21.5266H2.44047V22.3298ZM0.274699 20.1641C0.274699 21.3587 1.24586 22.3298 2.44047 22.3298V21.5266C1.68949 21.5266 1.07796 20.915 1.07796 20.1641H0.274699ZM1.03198 18.5181C0.550762 18.9303 0.274699 19.5305 0.274699 20.1641H1.07796C1.07796 19.765 1.25156 19.3877 1.55448 19.1282L1.03198 18.5181ZM1.15571 18.4254C1.11321 18.4529 1.07024 18.4846 1.02861 18.5211L1.55786 19.1253C1.56681 19.1175 1.5781 19.1089 1.59208 19.0998L1.15571 18.4254ZM3.29904 13.6515C3.29904 15.4969 2.50259 17.2446 1.10983 18.46L1.63797 19.0653C3.20494 17.6979 4.1023 15.7297 4.1023 13.6515H3.29904ZM3.29904 10.8389V13.6515H4.1023V10.8389H3.29904ZM10.7574 3.38055C6.64536 3.38055 3.29904 6.72588 3.29904 10.8389H4.1023C4.1023 7.16957 7.08892 4.18381 10.7574 4.18381V3.38055ZM11.3215 3.41646C11.1236 3.38293 10.9189 3.38055 10.7574 3.38055V4.18381C10.9185 4.18381 11.0628 4.18733 11.1874 4.20844L11.3215 3.41646ZM12.2725 4.74857C12.3777 4.11843 11.9515 3.52111 11.3203 3.41625L11.1887 4.20865C11.3819 4.24075 11.5124 4.42388 11.4802 4.61628L12.2725 4.74857ZM10.9391 5.69935C11.5614 5.80505 12.1674 5.38015 12.2726 4.7484L11.4802 4.61646C11.4484 4.80724 11.2599 4.93907 11.0737 4.90743L10.9391 5.69935ZM10.8072 5.69567C10.8811 5.69497 10.9165 5.69568 10.942 5.69982L11.0708 4.90696C10.9655 4.88984 10.8595 4.89188 10.7996 4.89244L10.8072 5.69567ZM10.7599 5.69597L10.8059 5.69568L10.8008 4.89243L10.7548 4.89272L10.7599 5.69597ZM5.61447 10.8389C5.61447 8.0032 7.9227 5.69598 10.7574 5.69598V4.89271C7.47917 4.89271 4.8112 7.55947 4.8112 10.8389H5.61447ZM5.61447 13.6515V10.8389H4.8112V13.6515H5.61447ZM2.5466 20.2793C4.49479 18.6217 5.61447 16.2054 5.61447 13.6515H4.8112C4.8112 15.969 3.79553 18.1619 2.02607 19.6675L2.5466 20.2793ZM2.5311 20.292L2.5389 20.2857L2.03377 19.6611L2.02597 19.6674L2.5311 20.292ZM2.55957 20.2666L2.55959 20.2666L1.99748 19.6928L1.99746 19.6928L2.55957 20.2666ZM2.46813 20.3395C2.49725 20.3197 2.52079 20.3003 2.53145 20.2917L2.02559 19.6677C2.01897 19.6731 2.01659 19.675 2.01468 19.6765C2.01339 19.6775 2.01394 19.677 2.01556 19.6759L2.46813 20.3395ZM2.59013 20.1641C2.59013 20.201 2.57498 20.2339 2.55694 20.2568L1.92675 19.7587C1.85444 19.8502 1.78687 19.988 1.78687 20.1641H2.59013ZM2.44047 20.0144C2.48619 20.0144 2.52328 20.0336 2.54712 20.0574C2.57095 20.0812 2.59013 20.1183 2.59013 20.1641H1.78687C1.78687 20.5228 2.08168 20.8177 2.44047 20.8177V20.0144ZM19.0743 20.0144H2.44047V20.8177H19.0743V20.0144ZM18.9248 20.1641C18.9248 20.1183 18.944 20.0812 18.9679 20.0573C18.9918 20.0335 19.0288 20.0144 19.0743 20.0144V20.8177C19.4331 20.8177 19.7281 20.523 19.7281 20.1641H18.9248ZM18.9618 20.2629C18.9523 20.2513 18.9427 20.2363 18.9354 20.2177C18.9279 20.1983 18.9248 20.1796 18.9248 20.1641H19.7281C19.7281 19.9859 19.6597 19.8468 19.5822 19.7526L18.9618 20.2629ZM18.9861 20.2938C18.9958 20.3017 19.0138 20.3165 19.0348 20.3318L19.5092 19.6836C19.5087 19.6832 19.5075 19.6823 19.5049 19.6803C19.502 19.678 19.4988 19.6754 19.493 19.6707L18.9861 20.2938ZM18.9768 20.2862C18.9796 20.2885 18.9824 20.2908 18.986 20.2937L19.4931 19.6708C19.4896 19.6679 19.4852 19.6643 19.4805 19.6605L18.9768 20.2862ZM15.9005 13.6515C15.9005 16.2053 17.019 18.6205 18.9684 20.2793L19.4889 19.6675C17.7183 18.1609 16.7038 15.969 16.7038 13.6515H15.9005ZM15.9005 12.5528V13.6515H16.7038V12.5528H15.9005ZM17.0582 11.3951C16.419 11.3951 15.9005 11.9137 15.9005 12.5528H16.7038C16.7038 12.3573 16.8627 12.1984 17.0582 12.1984V11.3951ZM18.2159 12.5528C18.2159 11.9137 17.6974 11.3951 17.0582 11.3951V12.1984C17.2538 12.1984 17.4127 12.3573 17.4127 12.5528H18.2159ZM18.2159 13.6515V12.5528H17.4127V13.6515H18.2159ZM20.408 18.4631C19.0132 17.2466 18.2159 15.4979 18.2159 13.6515H17.4127C17.4127 15.731 18.311 17.7 19.88 19.0685L20.408 18.4631ZM20.4865 18.5225C20.4448 18.4859 20.4032 18.4559 20.3668 18.4316L19.9212 19.1C19.9391 19.1119 19.9499 19.1203 19.9566 19.1261L20.4865 18.5225ZM21.2403 20.1641C21.2403 19.5306 20.9643 18.93 20.4822 18.5188L19.9609 19.1298C20.2634 19.3879 20.437 19.7649 20.437 20.1641H21.2403ZM19.0743 22.3298C20.2691 22.3298 21.2403 21.3587 21.2403 20.1641H20.437C20.437 20.915 19.8255 21.5266 19.0743 21.5266V22.3298ZM13.0406 21.5266H8.47389V22.3298H13.0406V21.5266ZM13.4271 22.0793C13.4271 22.0545 13.4296 22.0308 13.4342 22.0081L12.647 21.8483C12.6318 21.9232 12.6239 22.0005 12.6239 22.0793H13.4271ZM10.7573 24.7491C12.229 24.7491 13.4271 23.5524 13.4271 22.0793H12.6239C12.6239 23.1085 11.7856 23.9459 10.7573 23.9459V24.7491ZM8.08737 22.0793C8.08737 23.5524 9.28552 24.7491 10.7573 24.7491V23.9459C9.72889 23.9459 8.89064 23.1085 8.89064 22.0793H8.08737ZM8.08029 22.0081C8.08489 22.0308 8.08737 22.0545 8.08737 22.0793H8.89064C8.89064 22.0005 8.88271 21.9232 8.86749 21.8483L8.08029 22.0081Z" fill="#26C296" mask="url(#path-1-outside-1)"/>
</svg>
